<svg id="svg" version="1.1" xmlns="http://www.w3.org/2000/svg" xmlns:xlink="http://www.w3.org/1999/xlink" width="400" height="400" viewBox="0, 0, 400,400"><g id="svgg"><path id="path0" d="M197.832 0.539 C 198.122 1.296,197.565 1.611,195.820 1.676 C 194.873 1.712,194.400 1.922,194.400 2.308 C 194.400 2.679,194.166 2.796,193.743 2.634 C 193.190 2.421,193.168 2.479,193.600 3.001 C 194.293 3.835,193.791 4.253,192.933 3.557 C 192.555 3.251,192.365 3.199,192.511 3.442 C 192.658 3.688,192.338 4.082,191.787 4.333 C 191.244 4.580,190.800 4.967,190.800 5.191 C 190.800 5.416,190.609 5.600,190.376 5.600 C 190.143 5.600,190.080 5.375,190.235 5.100 C 190.461 4.700,190.410 4.700,189.979 5.100 C 189.682 5.375,189.045 5.600,188.563 5.600 C 188.080 5.600,187.582 5.870,187.455 6.200 C 187.329 6.530,186.814 6.813,186.313 6.828 C 185.446 6.855,185.441 6.874,186.200 7.200 C 186.867 7.487,186.780 7.548,185.679 7.572 C 184.607 7.595,184.286 7.809,183.971 8.711 C 183.629 9.693,183.404 9.812,182.029 9.735 C 180.681 9.660,180.442 9.778,180.230 10.624 C 180.009 11.503,179.431 11.789,178.169 11.646 C 177.931 11.619,177.496 12.047,177.201 12.598 C 176.800 13.348,176.342 13.600,175.381 13.600 C 174.675 13.600,173.863 13.883,173.577 14.228 C 173.290 14.573,172.714 14.766,172.296 14.657 C 171.758 14.516,171.600 14.624,171.756 15.029 C 171.887 15.371,171.728 15.600,171.359 15.600 C 170.588 15.600,169.800 16.409,169.800 17.200 C 169.800 17.633,169.356 17.800,168.200 17.800 C 166.798 17.800,166.604 17.911,166.632 18.700 C 166.659 19.478,166.461 19.600,165.175 19.600 C 164.193 19.600,163.604 19.813,163.446 20.225 C 163.314 20.569,163.039 20.748,162.835 20.622 C 162.631 20.496,162.225 20.619,161.932 20.896 C 161.640 21.173,160.877 21.670,160.237 22.000 C 159.597 22.330,158.990 22.919,158.888 23.309 C 158.710 23.988,158.677 23.988,158.121 23.309 C 157.802 22.919,157.655 22.825,157.794 23.100 C 157.933 23.375,157.849 23.600,157.606 23.600 C 157.364 23.600,156.680 24.050,156.087 24.600 C 155.493 25.150,154.691 25.600,154.304 25.600 C 153.917 25.600,153.600 25.870,153.600 26.200 C 153.600 26.530,153.426 26.800,153.213 26.800 C 152.999 26.800,152.937 26.508,153.074 26.151 C 153.286 25.600,153.197 25.610,152.482 26.223 C 152.019 26.619,151.732 27.091,151.844 27.271 C 151.956 27.452,151.670 27.600,151.210 27.600 C 150.096 27.600,148.339 28.778,148.665 29.306 C 148.817 29.551,148.730 29.604,148.455 29.434 C 148.198 29.275,148.091 28.977,148.217 28.772 C 148.344 28.568,148.257 28.400,148.024 28.400 C 147.791 28.400,147.600 28.670,147.600 29.000 C 147.600 29.330,147.319 29.600,146.976 29.600 C 146.633 29.600,146.464 29.780,146.600 30.000 C 146.741 30.228,146.365 30.412,145.724 30.428 C 144.746 30.453,144.704 30.499,145.400 30.784 C 146.142 31.088,146.118 31.144,145.066 31.559 C 144.443 31.805,143.768 31.904,143.566 31.779 C 143.365 31.655,143.200 31.709,143.200 31.899 C 143.200 32.090,142.435 32.580,141.500 32.987 C 140.565 33.395,139.668 33.925,139.506 34.164 C 139.315 34.448,139.210 34.399,139.206 34.025 C 139.202 33.616,138.968 33.699,138.400 34.308 C 137.960 34.780,137.600 35.373,137.600 35.626 C 137.600 35.879,137.339 35.986,137.020 35.863 C 136.615 35.708,136.514 35.833,136.686 36.280 C 136.886 36.800,136.718 36.878,135.779 36.698 C 134.525 36.458,132.308 37.737,133.292 38.132 C 133.571 38.245,133.384 38.351,132.876 38.368 C 132.356 38.386,132.061 38.225,132.200 38.000 C 132.336 37.780,132.257 37.600,132.024 37.600 C 131.791 37.600,131.600 37.870,131.600 38.200 C 131.600 38.530,131.375 38.755,131.100 38.700 C 130.825 38.645,130.645 38.825,130.700 39.100 C 130.755 39.375,130.530 39.600,130.200 39.600 C 129.870 39.600,129.645 39.802,129.700 40.050 C 129.755 40.297,129.575 40.582,129.300 40.683 C 129.019 40.786,128.789 40.545,128.775 40.133 C 128.754 39.528,128.687 39.556,128.390 40.293 C 128.175 40.829,127.805 41.100,127.467 40.970 C 127.157 40.851,126.797 41.031,126.667 41.370 C 126.527 41.735,126.172 41.888,125.799 41.744 C 125.391 41.588,125.209 41.697,125.284 42.051 C 125.348 42.353,125.175 42.555,124.900 42.500 C 124.625 42.445,124.400 42.591,124.400 42.824 C 124.400 43.057,124.194 43.120,123.942 42.964 C 123.617 42.763,123.564 43.002,123.759 43.779 C 123.963 44.591,123.900 44.829,123.517 44.689 C 123.233 44.585,123.045 44.297,123.100 44.050 C 123.250 43.377,122.411 43.507,122.146 44.198 C 122.019 44.526,121.766 44.703,121.583 44.589 C 121.399 44.476,121.087 44.673,120.889 45.027 C 120.690 45.382,120.409 45.656,120.264 45.636 C 119.267 45.501,118.800 45.681,118.800 46.200 C 118.800 46.530,118.609 46.800,118.376 46.800 C 118.143 46.800,118.042 46.944,118.151 47.120 C 118.259 47.296,117.685 47.480,116.874 47.528 C 115.958 47.583,115.139 47.927,114.711 48.439 C 114.332 48.891,113.828 49.141,113.591 48.994 C 113.353 48.847,112.716 49.205,112.175 49.789 C 111.473 50.546,110.934 50.787,110.295 50.629 C 109.803 50.507,109.626 50.511,109.902 50.638 C 110.707 51.007,110.053 51.600,108.841 51.600 C 108.042 51.600,107.600 51.882,107.273 52.600 C 106.962 53.282,106.496 53.600,105.809 53.600 C 105.031 53.600,104.799 53.806,104.794 54.500 C 104.790 55.133,104.689 55.244,104.456 54.876 C 104.205 54.482,103.955 54.608,103.444 55.389 C 103.026 56.027,102.579 56.310,102.282 56.124 C 101.215 55.458,100.445 55.595,100.605 56.424 C 100.715 56.996,100.472 57.344,99.780 57.607 C 99.241 57.812,98.800 58.138,98.800 58.330 C 98.800 58.523,98.125 58.662,97.300 58.640 C 95.887 58.602,95.807 58.665,95.919 59.722 C 96.034 60.811,95.994 60.836,94.519 60.592 C 93.390 60.405,93.154 60.449,93.600 60.764 C 94.022 61.062,94.052 61.204,93.700 61.244 C 93.425 61.275,93.020 61.345,92.800 61.400 C 92.580 61.455,92.209 61.523,91.976 61.550 C 91.743 61.578,91.652 61.761,91.774 61.958 C 91.896 62.155,91.736 62.416,91.418 62.538 C 91.033 62.685,90.915 62.566,91.063 62.180 C 91.186 61.861,91.106 61.600,90.886 61.600 C 90.666 61.600,90.379 61.878,90.248 62.219 C 90.118 62.559,89.693 62.784,89.305 62.719 C 88.909 62.652,88.644 62.819,88.700 63.100 C 88.755 63.375,88.451 63.600,88.024 63.600 C 87.597 63.600,87.119 63.808,86.962 64.062 C 86.770 64.372,86.860 64.417,87.238 64.198 C 87.571 64.005,87.664 64.020,87.467 64.236 C 87.283 64.436,86.968 64.623,86.767 64.650 C 86.565 64.677,86.220 64.723,86.000 64.750 C 85.780 64.778,85.597 65.205,85.594 65.700 C 85.589 66.431,85.514 66.487,85.194 66.000 C 84.903 65.557,84.720 65.524,84.493 65.874 C 84.323 66.135,83.648 66.420,82.993 66.508 C 82.337 66.595,81.778 66.877,81.750 67.134 C 81.723 67.390,81.678 67.870,81.650 68.200 C 81.623 68.530,81.465 68.779,81.300 68.753 C 80.335 68.600,79.925 68.828,80.317 69.300 C 80.639 69.687,80.378 69.787,79.166 69.741 C 78.305 69.708,77.600 69.854,77.600 70.064 C 77.600 70.275,77.440 70.349,77.245 70.228 C 77.050 70.107,76.915 70.315,76.945 70.689 C 76.977 71.082,76.663 71.427,76.200 71.506 C 75.604 71.608,75.538 71.548,75.943 71.272 C 76.286 71.037,76.335 70.807,76.077 70.648 C 75.853 70.509,75.430 70.936,75.137 71.598 C 74.575 72.868,73.742 73.295,74.158 72.100 C 74.376 71.475,74.341 71.479,73.830 72.136 C 73.444 72.634,72.990 72.787,72.432 72.610 C 71.790 72.406,71.659 72.488,71.845 72.974 C 72.009 73.402,71.850 73.604,71.343 73.613 C 70.345 73.630,69.290 74.481,69.498 75.100 C 69.596 75.391,69.327 75.600,68.853 75.600 C 68.406 75.600,67.837 75.915,67.590 76.300 C 67.161 76.967,67.150 76.967,67.357 76.300 C 67.621 75.452,66.980 75.354,66.658 76.193 C 66.528 76.533,66.166 76.685,65.811 76.549 C 65.344 76.370,65.259 76.488,65.465 77.025 C 65.677 77.579,65.589 77.681,65.069 77.482 C 64.701 77.341,64.400 77.410,64.400 77.636 C 64.400 77.862,64.220 77.936,64.000 77.800 C 63.780 77.664,63.600 77.833,63.600 78.176 C 63.600 78.751,63.114 78.988,62.255 78.832 C 62.065 78.798,61.666 79.092,61.368 79.485 C 61.069 79.878,60.820 80.052,60.813 79.871 C 60.806 79.691,60.525 79.818,60.188 80.154 C 59.852 80.491,59.341 80.675,59.053 80.565 C 58.764 80.454,58.297 80.642,58.015 80.982 C 57.733 81.322,57.265 81.600,56.975 81.600 C 56.685 81.600,56.317 81.811,56.158 82.068 C 55.962 82.385,56.089 82.451,56.555 82.273 C 56.964 82.116,57.142 82.170,56.996 82.406 C 56.861 82.624,56.312 82.693,55.775 82.558 C 55.142 82.399,54.800 82.484,54.800 82.799 C 54.800 83.074,54.530 83.182,54.179 83.047 C 53.823 82.911,53.663 82.978,53.803 83.205 C 53.937 83.422,53.772 83.600,53.436 83.600 C 53.083 83.600,52.914 83.831,53.035 84.147 C 53.185 84.538,52.952 84.663,52.224 84.583 C 51.510 84.504,50.950 84.791,50.365 85.535 C 49.904 86.121,49.409 86.563,49.264 86.517 C 48.565 86.299,46.892 87.047,45.807 88.065 C 45.143 88.687,44.375 89.197,44.100 89.198 C 43.825 89.199,43.600 89.380,43.600 89.600 C 43.600 89.820,43.465 89.962,43.300 89.915 C 42.770 89.765,41.030 90.882,39.965 92.056 C 39.396 92.684,38.806 93.073,38.654 92.921 C 38.146 92.413,37.240 92.469,36.768 93.038 C 36.512 93.347,35.953 93.600,35.527 93.600 C 35.101 93.600,34.835 93.735,34.934 93.900 C 35.034 94.065,34.865 94.432,34.558 94.716 C 34.251 94.999,34.000 95.122,34.000 94.987 C 34.000 94.853,33.730 95.013,33.400 95.343 C 33.070 95.673,32.800 96.115,32.800 96.325 C 32.800 96.535,32.440 96.801,32.000 96.916 C 31.560 97.031,31.200 96.951,31.200 96.739 C 31.200 96.527,31.017 96.466,30.793 96.604 C 30.570 96.742,30.491 97.023,30.617 97.228 C 30.744 97.432,30.432 97.606,29.924 97.613 C 28.872 97.627,27.600 98.466,27.600 99.144 C 27.600 99.544,26.789 99.786,25.906 99.649 C 25.744 99.624,25.608 144.768,25.603 199.968 L 25.594 300.331 27.097 301.262 C 27.924 301.773,28.839 302.138,29.131 302.071 C 29.423 302.005,29.758 302.318,29.875 302.766 C 30.048 303.429,30.324 303.544,31.346 303.382 C 32.373 303.219,32.675 303.348,33.001 304.091 C 33.221 304.591,34.115 305.335,34.989 305.745 C 35.863 306.155,36.770 306.752,37.004 307.073 C 37.258 307.420,37.911 307.605,38.615 307.528 C 39.563 307.426,39.776 307.541,39.681 308.106 C 39.616 308.495,39.709 308.765,39.889 308.706 C 40.068 308.648,40.651 309.005,41.183 309.500 C 41.715 309.995,42.561 310.400,43.063 310.400 C 43.669 310.400,43.905 310.583,43.765 310.946 C 43.609 311.355,43.907 311.464,44.951 311.381 C 46.175 311.284,46.396 311.413,46.752 312.435 C 47.084 313.386,47.388 313.600,48.408 313.600 C 49.622 313.600,50.945 314.452,50.714 315.084 C 50.651 315.256,51.275 315.339,52.100 315.268 C 53.254 315.169,53.600 315.284,53.600 315.769 C 53.600 316.116,53.915 316.403,54.300 316.406 C 54.898 316.411,54.913 316.469,54.400 316.800 C 53.857 317.151,54.114 317.374,54.911 317.244 C 55.082 317.216,55.327 317.464,55.454 317.796 C 55.581 318.128,56.073 318.400,56.547 318.400 C 57.020 318.400,57.632 318.760,57.907 319.200 C 58.468 320.098,59.438 320.259,59.717 319.500 C 59.863 319.100,60.006 319.100,60.430 319.500 C 60.869 319.914,60.860 320.001,60.380 320.006 C 59.874 320.011,59.874 320.059,60.381 320.380 C 60.700 320.582,61.103 320.660,61.276 320.553 C 61.449 320.446,61.484 320.638,61.353 320.979 C 61.222 321.321,61.299 321.600,61.524 321.600 C 61.749 321.600,62.024 321.375,62.135 321.100 C 62.262 320.784,62.348 320.842,62.368 321.257 C 62.386 321.619,62.661 322.014,62.980 322.137 C 63.383 322.292,63.486 322.167,63.317 321.728 C 63.184 321.381,63.701 321.705,64.467 322.449 C 65.232 323.192,65.797 323.924,65.721 324.075 C 65.645 324.227,66.262 324.407,67.092 324.475 C 67.921 324.544,68.510 324.738,68.400 324.906 C 68.101 325.363,70.472 326.474,71.291 326.260 C 71.681 326.158,71.900 326.238,71.777 326.437 C 71.654 326.637,71.754 326.800,72.000 326.800 C 72.246 326.800,72.336 326.980,72.200 327.200 C 71.986 327.547,73.143 327.809,74.130 327.637 C 74.311 327.606,74.345 327.765,74.206 327.990 C 74.067 328.216,74.154 328.400,74.400 328.400 C 74.646 328.400,74.745 328.565,74.620 328.767 C 74.495 328.970,74.935 329.254,75.597 329.399 C 76.258 329.545,76.800 329.829,76.800 330.032 C 76.800 330.234,77.351 330.400,78.024 330.400 C 78.697 330.400,79.148 330.560,79.027 330.756 C 78.759 331.190,80.572 332.433,81.583 332.509 C 81.984 332.539,82.237 332.758,82.146 332.996 C 82.055 333.234,82.374 333.458,82.854 333.494 C 83.335 333.530,83.851 333.758,84.001 334.001 C 84.151 334.244,84.437 334.411,84.637 334.374 C 85.371 334.235,86.126 334.407,85.877 334.656 C 85.565 334.968,88.078 336.381,88.500 336.131 C 88.665 336.033,88.800 336.138,88.800 336.364 C 88.800 336.590,89.115 336.657,89.500 336.513 C 90.091 336.291,90.121 336.347,89.696 336.871 C 89.262 337.406,89.343 337.474,90.288 337.371 C 90.891 337.304,91.516 337.464,91.677 337.725 C 91.839 337.986,92.157 338.223,92.385 338.250 C 92.613 338.278,92.980 338.322,93.200 338.350 C 93.420 338.378,93.600 338.674,93.600 339.009 C 93.600 339.343,94.050 339.822,94.600 340.073 C 95.150 340.323,95.600 340.773,95.600 341.072 C 95.600 341.437,95.936 341.555,96.621 341.430 C 97.277 341.312,97.722 341.452,97.864 341.823 C 97.986 342.140,98.426 342.400,98.843 342.400 C 99.259 342.400,99.600 342.648,99.600 342.950 C 99.600 343.252,100.095 343.600,100.700 343.723 C 101.305 343.845,102.167 344.272,102.616 344.673 C 103.064 345.073,103.694 345.459,104.016 345.530 C 104.337 345.602,104.660 345.827,104.733 346.030 C 104.807 346.234,105.132 346.400,105.457 346.400 C 105.782 346.400,105.964 346.535,105.862 346.700 C 105.760 346.865,106.064 347.022,106.538 347.048 C 108.811 347.174,109.503 347.387,109.306 347.900 C 109.194 348.193,109.259 348.404,109.451 348.369 C 110.229 348.227,111.317 348.416,111.080 348.653 C 110.786 348.948,112.517 350.400,113.163 350.400 C 113.403 350.400,113.600 350.632,113.600 350.915 C 113.600 351.198,113.989 351.459,114.464 351.495 C 114.939 351.531,115.454 351.764,115.609 352.014 C 115.763 352.264,116.049 352.498,116.245 352.534 C 116.440 352.570,116.555 352.735,116.500 352.900 C 116.445 353.065,116.738 353.200,117.151 353.200 C 117.564 353.200,118.124 353.468,118.396 353.796 C 118.668 354.123,119.029 354.306,119.198 354.201 C 119.507 354.010,121.683 355.516,121.933 356.093 C 122.007 356.262,122.502 356.400,123.033 356.400 C 123.565 356.400,124.000 356.567,124.000 356.771 C 124.000 357.296,126.343 358.400,127.457 358.400 C 128.548 358.400,130.068 359.566,129.718 360.133 C 129.584 360.350,129.682 360.396,129.938 360.238 C 130.351 359.983,130.580 360.461,130.447 361.300 C 130.421 361.465,130.599 361.600,130.843 361.600 C 131.086 361.600,131.182 361.330,131.055 361.000 C 130.929 360.670,130.999 360.400,131.213 360.400 C 131.426 360.400,131.600 360.670,131.600 361.000 C 131.600 361.330,131.793 361.600,132.029 361.600 C 132.264 361.600,132.719 361.862,133.040 362.183 C 133.361 362.504,133.888 362.664,134.212 362.540 C 134.576 362.400,134.800 362.554,134.800 362.945 C 134.800 363.343,135.023 363.489,135.405 363.343 C 135.854 363.171,135.939 363.293,135.737 363.821 C 135.560 364.280,135.617 364.437,135.896 364.264 C 136.530 363.872,137.600 364.391,137.600 365.092 C 137.600 365.575,137.717 365.601,138.178 365.219 C 138.642 364.833,138.857 364.902,139.274 365.570 C 139.559 366.026,140.199 366.400,140.696 366.400 C 141.202 366.400,141.600 366.645,141.600 366.957 C 141.600 367.582,142.678 368.123,143.236 367.778 C 143.436 367.654,143.600 367.743,143.600 367.976 C 143.600 368.209,144.275 368.414,145.100 368.432 C 145.925 368.449,146.374 368.554,146.098 368.666 C 145.244 369.010,145.994 369.617,146.970 369.372 C 147.596 369.215,147.969 369.343,148.133 369.770 C 148.266 370.117,148.608 370.400,148.893 370.400 C 149.177 370.400,149.588 370.799,149.805 371.287 C 150.022 371.775,150.616 372.270,151.124 372.387 C 151.632 372.504,152.082 372.779,152.124 372.997 C 152.166 373.216,152.427 373.342,152.705 373.279 C 152.983 373.215,153.318 373.441,153.448 373.781 C 153.579 374.122,153.936 374.400,154.243 374.400 C 154.549 374.400,154.800 374.577,154.800 374.792 C 154.800 375.008,155.250 375.298,155.800 375.436 C 156.350 375.574,156.800 375.847,156.800 376.043 C 156.800 376.240,157.250 376.400,157.800 376.400 C 158.350 376.400,158.800 376.562,158.800 376.760 C 158.800 376.958,159.700 377.443,160.800 377.839 C 161.900 378.234,162.800 378.805,162.800 379.106 C 162.800 379.480,163.066 379.570,163.635 379.389 C 164.452 379.130,166.000 380.268,166.000 381.128 C 166.000 381.326,166.630 381.439,167.400 381.377 C 168.732 381.272,169.008 381.546,168.870 382.833 C 168.845 383.062,169.507 383.191,170.902 383.230 C 171.289 383.241,171.878 383.778,172.213 384.425 C 172.547 385.071,172.917 385.600,173.034 385.600 C 173.151 385.600,173.146 385.437,173.023 385.237 C 172.900 385.038,173.248 385.083,173.796 385.337 C 174.345 385.592,174.795 385.935,174.797 386.100 C 174.799 386.265,175.173 386.400,175.629 386.400 C 176.084 386.400,176.737 386.680,177.080 387.023 C 177.423 387.366,177.959 387.548,178.272 387.428 C 178.585 387.307,178.741 387.372,178.618 387.570 C 178.495 387.769,179.071 388.337,179.898 388.832 C 180.724 389.327,181.723 390.007,182.118 390.344 C 183.044 391.134,184.545 391.392,184.195 390.701 C 184.055 390.426,184.197 390.512,184.510 390.894 C 184.823 391.275,185.196 391.470,185.340 391.327 C 185.483 391.184,185.600 391.367,185.600 391.733 C 185.600 392.100,185.870 392.400,186.200 392.400 C 186.530 392.400,186.755 392.535,186.700 392.700 C 186.645 392.865,186.698 393.000,186.818 393.000 C 186.937 393.000,187.510 393.311,188.091 393.692 C 188.671 394.072,189.679 394.424,190.329 394.473 C 191.072 394.530,191.442 394.745,191.324 395.053 C 191.199 395.378,191.414 395.469,191.968 395.324 C 192.510 395.183,192.802 395.298,192.806 395.653 C 192.811 396.047,192.896 396.069,193.111 395.730 C 193.311 395.416,193.561 395.582,193.867 396.231 C 194.168 396.867,194.179 397.111,193.901 396.939 C 193.651 396.784,193.594 396.867,193.762 397.138 C 193.919 397.392,194.317 397.600,194.647 397.600 C 194.977 397.600,195.136 397.780,195.000 398.000 C 194.864 398.220,194.928 398.400,195.143 398.400 C 195.358 398.400,195.614 398.175,195.712 397.900 C 195.938 397.267,196.425 397.699,196.572 398.663 C 196.657 399.217,197.022 399.395,198.042 399.379 C 198.789 399.367,199.535 399.547,199.700 399.779 C 199.898 400.057,200.134 399.996,200.394 399.600 C 200.657 399.199,200.790 399.166,200.794 399.500 C 200.803 400.248,203.175 400.130,203.468 399.366 C 203.652 398.888,203.787 398.855,204.019 399.231 C 204.397 399.843,205.400 398.949,205.400 398.000 C 205.400 397.670,205.670 397.376,206.000 397.346 C 206.330 397.317,206.960 397.259,207.400 397.218 L 208.200 397.144 207.400 396.800 C 206.703 396.501,206.755 396.447,207.800 396.382 C 209.142 396.299,209.415 396.245,210.700 395.811 C 211.195 395.644,211.600 395.337,211.600 395.130 C 211.600 394.922,211.420 394.864,211.200 395.000 C 210.980 395.136,210.800 395.057,210.800 394.824 C 210.800 394.591,211.205 394.394,211.700 394.387 C 212.831 394.371,213.924 393.559,213.702 392.900 C 213.587 392.560,214.005 392.400,215.009 392.400 C 216.241 392.400,216.442 392.286,216.222 391.712 C 216.076 391.334,216.086 391.152,216.242 391.309 C 216.398 391.465,216.786 391.378,217.104 391.114 C 217.421 390.851,217.964 390.593,218.310 390.543 C 218.657 390.492,219.093 390.176,219.281 389.842 C 219.468 389.507,219.863 389.326,220.159 389.440 C 220.455 389.553,220.804 389.366,220.936 389.023 C 221.080 388.649,221.659 388.400,222.387 388.400 C 223.144 388.400,223.562 388.212,223.500 387.900 C 223.445 387.625,223.708 387.424,224.084 387.453 C 224.461 387.482,224.731 387.310,224.684 387.071 C 224.638 386.832,224.780 386.621,225.000 386.603 C 226.163 386.506,227.606 385.934,227.426 385.642 C 227.312 385.458,227.773 385.372,228.451 385.451 C 229.413 385.563,229.633 385.463,229.454 384.997 C 229.312 384.627,229.459 384.400,229.841 384.400 C 230.180 384.400,230.708 384.175,231.015 383.900 C 232.315 382.734,232.787 382.400,233.134 382.400 C 233.336 382.400,233.721 382.136,233.989 381.813 C 234.257 381.490,234.594 381.241,234.738 381.260 C 235.415 381.350,235.886 381.125,236.962 380.200 C 237.601 379.650,238.323 379.200,238.566 379.200 C 238.809 379.200,239.241 378.826,239.526 378.370 C 239.951 377.689,240.152 377.628,240.643 378.035 C 241.138 378.446,241.279 378.383,241.467 377.666 C 241.591 377.190,241.807 376.788,241.947 376.772 C 243.927 376.557,244.602 376.289,245.346 375.424 C 245.830 374.861,246.424 374.400,246.667 374.400 C 247.502 374.400,249.188 373.321,248.894 372.974 C 248.732 372.783,248.915 372.867,249.300 373.162 C 249.899 373.621,250.000 373.604,250.000 373.049 C 250.000 372.692,250.191 372.400,250.424 372.400 C 250.657 372.400,250.733 372.216,250.594 371.990 C 250.455 371.765,250.489 371.614,250.670 371.656 C 251.284 371.796,253.200 371.116,253.200 370.757 C 253.200 370.560,253.405 370.400,253.656 370.400 C 253.907 370.400,254.357 370.085,254.657 369.700 C 255.149 369.068,255.179 369.066,254.966 369.679 C 254.760 370.275,254.853 370.300,255.735 369.883 C 256.443 369.549,256.624 369.270,256.347 368.936 C 256.063 368.594,256.158 368.516,256.689 368.655 C 257.511 368.870,259.349 367.494,258.893 367.005 C 258.732 366.833,259.027 366.914,259.548 367.186 C 260.234 367.543,260.417 367.550,260.208 367.213 C 260.032 366.929,260.248 366.660,260.760 366.526 C 261.222 366.406,261.600 366.160,261.600 365.980 C 261.600 365.801,261.960 365.540,262.400 365.400 C 262.918 365.236,263.200 364.795,263.200 364.149 C 263.200 363.576,263.373 363.260,263.607 363.404 C 263.830 363.542,263.909 363.823,263.783 364.028 C 263.370 364.696,264.098 364.419,264.643 363.700 C 264.985 363.250,265.179 363.183,265.187 363.514 C 265.197 363.923,265.384 363.930,266.100 363.546 C 266.595 363.282,267.030 363.140,267.067 363.232 C 267.103 363.325,267.268 363.265,267.433 363.100 C 267.598 362.935,267.483 362.800,267.178 362.800 C 266.367 362.800,268.037 361.706,269.351 361.377 C 269.949 361.227,270.344 361.011,270.230 360.896 C 270.115 360.782,270.737 360.335,271.611 359.903 C 272.485 359.470,273.200 358.955,273.200 358.758 C 273.200 358.561,273.535 358.400,273.944 358.400 C 274.353 358.400,275.351 357.950,276.162 357.400 C 276.972 356.850,277.906 356.400,278.237 356.400 C 278.568 356.400,279.255 355.950,279.765 355.400 C 280.275 354.850,280.941 354.397,281.246 354.393 C 281.551 354.389,282.224 353.939,282.742 353.393 C 283.260 352.847,284.079 352.400,284.562 352.400 C 285.719 352.400,286.400 351.674,286.400 350.440 C 286.400 349.662,286.507 349.547,286.880 349.920 C 287.541 350.581,289.178 350.524,289.443 349.831 C 289.564 349.518,290.278 348.969,291.031 348.612 C 291.784 348.255,292.400 347.801,292.400 347.604 C 292.400 347.407,292.746 347.313,293.168 347.394 C 293.591 347.475,294.035 347.285,294.156 346.971 C 294.276 346.657,294.651 346.400,294.987 346.400 C 295.324 346.400,295.600 346.220,295.600 346.000 C 295.600 345.780,295.811 345.600,296.069 345.600 C 296.326 345.600,296.897 345.285,297.337 344.900 C 297.777 344.515,297.998 344.438,297.827 344.730 C 297.571 345.166,297.661 345.168,298.342 344.743 C 298.934 344.374,299.031 344.140,298.684 343.920 C 298.375 343.724,298.526 343.610,299.100 343.606 C 299.595 343.603,300.052 343.645,300.116 343.700 C 300.180 343.755,300.965 343.220,301.860 342.511 C 302.756 341.802,303.592 341.325,303.718 341.451 C 303.844 341.578,304.458 341.159,305.082 340.520 C 305.832 339.753,306.582 339.379,307.293 339.417 C 307.885 339.449,308.275 339.321,308.159 339.134 C 307.905 338.723,309.649 338.004,310.162 338.309 C 310.361 338.427,310.405 338.332,310.261 338.098 C 309.683 337.163,310.478 336.400,312.030 336.400 C 313.307 336.400,313.531 336.284,313.319 335.734 C 313.152 335.297,313.219 335.165,313.517 335.349 C 314.224 335.785,315.489 334.261,315.323 333.173 C 315.187 332.281,315.213 332.266,315.715 332.951 C 316.293 333.741,317.869 333.682,317.700 332.876 C 317.645 332.614,317.735 332.421,317.900 332.447 C 318.065 332.473,318.335 332.451,318.500 332.397 C 318.665 332.344,319.025 332.269,319.300 332.232 C 319.575 332.194,319.748 331.926,319.684 331.634 C 319.602 331.260,319.853 331.177,320.543 331.350 C 321.208 331.517,321.589 331.405,321.746 330.997 C 321.872 330.669,322.251 330.400,322.587 330.400 C 322.924 330.400,323.200 330.159,323.200 329.864 C 323.200 329.526,323.621 329.354,324.345 329.397 C 325.307 329.454,325.456 329.337,325.281 328.665 C 325.120 328.050,325.222 327.923,325.723 328.115 C 326.081 328.253,326.483 328.190,326.615 327.976 C 326.747 327.762,327.053 327.709,327.296 327.859 C 327.578 328.034,327.645 327.895,327.482 327.470 C 327.294 326.981,327.511 326.744,328.314 326.563 C 330.255 326.124,331.600 325.417,331.600 324.836 C 331.600 324.523,331.721 324.387,331.868 324.535 C 332.016 324.682,332.578 324.514,333.117 324.160 C 333.657 323.806,333.976 323.716,333.826 323.959 C 333.676 324.201,333.743 324.400,333.976 324.400 C 334.209 324.400,334.400 323.895,334.400 323.277 C 334.400 322.257,334.519 322.163,335.700 322.252 C 336.628 322.322,337.210 322.100,337.735 321.475 C 338.139 320.994,338.363 320.809,338.233 321.065 C 338.025 321.473,338.238 321.500,339.549 321.231 C 339.631 321.214,339.500 320.962,339.259 320.671 C 338.906 320.246,339.075 320.173,340.110 320.299 C 341.100 320.420,341.261 320.359,340.800 320.034 C 340.394 319.748,340.361 319.610,340.700 319.606 C 340.975 319.603,341.200 319.330,341.200 319.000 C 341.200 318.600,341.600 318.400,342.400 318.400 C 343.060 318.400,343.600 318.231,343.600 318.025 C 343.600 317.819,344.185 317.594,344.900 317.525 C 345.678 317.450,346.160 317.199,346.100 316.900 C 346.045 316.625,346.270 316.400,346.600 316.400 C 346.930 316.400,347.200 316.136,347.200 315.813 C 347.200 315.453,347.434 315.315,347.805 315.457 C 348.237 315.623,348.339 315.506,348.162 315.045 C 347.937 314.458,349.698 314.079,351.330 314.363 C 351.511 314.394,351.545 314.235,351.406 314.010 C 351.264 313.779,351.523 313.600,352.000 313.600 C 352.466 313.600,352.741 313.428,352.611 313.217 C 352.481 313.007,352.110 312.936,351.787 313.060 C 351.418 313.202,351.200 313.042,351.200 312.629 C 351.200 312.127,351.365 312.060,351.900 312.346 C 352.285 312.553,352.749 312.751,352.930 312.787 C 353.315 312.863,354.800 311.237,354.800 310.739 C 354.800 310.552,355.385 310.394,356.100 310.387 C 357.500 310.374,359.215 309.405,358.350 309.117 C 358.052 309.017,357.988 308.744,358.186 308.422 C 358.440 308.012,358.693 308.109,359.294 308.846 C 359.826 309.497,360.003 309.577,359.850 309.100 C 359.690 308.604,359.842 308.400,360.370 308.400 C 360.779 308.400,361.218 308.130,361.345 307.800 C 361.471 307.470,361.941 307.200,362.387 307.200 C 362.834 307.200,363.200 307.054,363.200 306.875 C 363.200 306.451,365.984 305.365,366.676 305.519 C 366.970 305.584,367.333 305.314,367.483 304.919 C 367.633 304.523,367.992 303.960,368.281 303.668 C 368.571 303.375,368.705 302.970,368.580 302.768 C 368.455 302.565,368.633 302.400,368.976 302.400 C 369.319 302.400,369.579 302.535,369.553 302.700 C 369.411 303.597,369.670 303.678,370.211 302.906 C 370.547 302.426,371.069 302.128,371.370 302.244 C 371.672 302.360,372.055 302.234,372.221 301.965 C 372.427 301.632,372.357 301.579,372.000 301.800 C 371.678 301.999,371.574 301.966,371.729 301.715 C 371.867 301.491,372.462 301.399,373.050 301.512 C 373.752 301.646,374.028 301.568,373.853 301.286 C 373.707 301.049,373.768 300.743,373.990 300.606 C 374.728 300.150,374.540 100.614,373.802 100.001 C 373.471 99.727,373.200 99.260,373.200 98.964 C 373.200 98.667,372.953 98.520,372.652 98.636 C 372.350 98.751,371.823 98.566,371.480 98.223 C 371.137 97.880,370.414 97.600,369.871 97.600 C 369.007 97.600,368.176 96.713,368.321 95.946 C 368.348 95.806,367.738 95.734,366.967 95.786 C 365.919 95.856,365.457 95.680,365.142 95.092 C 364.839 94.525,364.844 94.380,365.160 94.575 C 365.402 94.725,365.600 94.672,365.600 94.459 C 365.600 94.245,364.880 93.949,364.000 93.800 C 363.120 93.651,362.400 93.366,362.400 93.165 C 362.400 92.964,362.124 92.800,361.787 92.800 C 361.451 92.800,361.076 92.541,360.954 92.225 C 360.833 91.909,360.479 91.748,360.167 91.868 C 359.850 91.989,359.597 91.846,359.594 91.543 C 359.589 91.123,359.502 91.135,359.211 91.597 C 358.904 92.082,358.738 92.098,358.320 91.680 C 357.902 91.262,357.918 91.096,358.403 90.789 C 358.732 90.582,358.865 90.387,358.700 90.356 C 358.535 90.325,358.265 90.258,358.100 90.206 C 357.935 90.154,357.200 89.971,356.466 89.799 C 355.732 89.627,355.038 89.243,354.924 88.945 C 354.810 88.648,354.554 88.505,354.355 88.628 C 354.157 88.750,353.880 88.552,353.740 88.187 C 353.551 87.695,353.183 87.583,352.318 87.756 C 351.286 87.963,351.166 87.887,351.276 87.099 C 351.344 86.609,351.220 86.191,351.000 86.170 C 350.780 86.148,350.312 86.003,349.960 85.846 C 349.608 85.689,349.158 85.614,348.960 85.680 C 348.762 85.746,348.600 85.652,348.600 85.472 C 348.600 85.291,348.281 84.965,347.892 84.747 C 347.502 84.529,347.288 84.182,347.415 83.975 C 347.543 83.769,347.437 83.600,347.181 83.600 C 346.924 83.600,346.818 83.870,346.945 84.200 C 347.071 84.530,347.001 84.800,346.787 84.800 C 346.574 84.800,346.400 84.530,346.400 84.200 C 346.400 83.870,346.130 83.600,345.800 83.600 C 345.470 83.600,345.199 83.375,345.197 83.100 C 345.193 82.508,343.388 81.600,342.215 81.600 C 341.761 81.600,341.052 81.150,340.639 80.600 C 340.209 80.028,339.484 79.600,338.944 79.600 C 338.402 79.600,338.043 79.387,338.100 79.100 C 338.169 78.757,337.716 78.629,336.660 78.693 C 335.442 78.766,335.168 78.662,335.347 78.193 C 335.494 77.812,335.329 77.598,334.887 77.594 C 334.316 77.589,334.298 77.526,334.779 77.221 C 335.233 76.934,335.125 76.797,334.279 76.584 C 333.686 76.435,333.200 76.153,333.200 75.957 C 333.200 75.760,332.829 75.600,332.376 75.600 C 331.923 75.600,331.651 75.441,331.772 75.246 C 332.103 74.709,330.115 74.455,329.531 74.959 C 329.251 75.202,329.362 74.992,329.779 74.493 C 330.524 73.601,330.524 73.586,329.769 73.656 C 328.240 73.797,327.200 73.591,327.200 73.147 C 327.200 72.395,325.580 71.233,324.898 71.494 C 324.419 71.678,324.327 71.567,324.526 71.049 C 324.685 70.635,324.631 70.457,324.393 70.605 C 324.174 70.740,323.886 70.569,323.754 70.225 C 323.622 69.881,323.269 69.600,322.970 69.600 C 322.650 69.600,322.520 69.848,322.655 70.200 C 322.782 70.530,322.676 70.800,322.419 70.800 C 322.163 70.800,322.065 70.619,322.202 70.397 C 322.339 70.176,322.170 69.887,321.828 69.755 C 321.485 69.624,321.296 69.367,321.409 69.186 C 321.521 69.004,321.430 68.742,321.207 68.604 C 320.983 68.466,320.797 68.588,320.794 68.876 C 320.789 69.263,320.690 69.246,320.416 68.812 C 320.211 68.488,319.929 68.338,319.788 68.478 C 319.508 68.759,318.000 67.400,318.000 66.867 C 318.000 66.683,317.722 66.533,317.383 66.533 C 317.033 66.533,316.854 66.764,316.970 67.067 C 317.083 67.360,317.001 67.600,316.787 67.600 C 316.462 67.600,316.248 66.851,316.324 65.985 C 316.335 65.867,315.894 65.733,315.345 65.687 C 314.337 65.604,313.402 64.934,313.271 64.200 C 313.202 63.811,313.051 63.754,311.800 63.650 C 311.470 63.623,311.200 63.372,311.200 63.093 C 311.200 62.768,310.698 62.610,309.800 62.652 C 308.769 62.700,308.400 62.553,308.400 62.092 C 308.400 61.748,308.281 61.586,308.136 61.731 C 307.991 61.876,307.615 61.629,307.302 61.181 C 306.922 60.639,306.476 60.449,305.966 60.611 C 305.517 60.753,305.200 60.665,305.200 60.398 C 305.200 59.642,304.120 58.804,302.807 58.541 C 302.125 58.405,301.096 57.794,300.520 57.184 C 299.944 56.573,299.231 56.167,298.936 56.280 C 298.641 56.393,298.400 56.286,298.400 56.043 C 298.400 55.799,298.136 55.600,297.813 55.600 C 297.420 55.600,297.312 55.368,297.487 54.900 C 297.725 54.265,297.680 54.256,296.998 54.800 C 296.476 55.216,296.344 55.237,296.567 54.867 C 296.796 54.486,296.670 54.372,296.121 54.465 C 295.681 54.539,294.643 53.986,293.683 53.164 C 292.013 51.734,290.584 51.259,290.968 52.261 C 291.132 52.687,291.020 52.694,290.385 52.298 C 289.953 52.028,289.600 51.678,289.600 51.519 C 289.600 50.984,287.832 49.579,287.378 49.753 C 287.130 49.848,286.434 49.403,285.830 48.763 C 285.224 48.121,284.312 47.600,283.793 47.600 C 283.203 47.600,282.759 47.301,282.598 46.794 C 282.457 46.351,282.175 46.092,281.971 46.218 C 281.767 46.344,281.600 46.257,281.600 46.024 C 281.600 45.791,281.075 45.600,280.433 45.600 C 279.792 45.600,279.203 45.410,279.126 45.178 C 279.049 44.946,278.659 44.709,278.261 44.650 C 277.862 44.592,277.399 44.322,277.232 44.052 C 277.065 43.781,276.550 43.531,276.087 43.497 C 275.624 43.462,275.025 43.021,274.755 42.517 C 274.486 42.012,274.087 41.600,273.870 41.600 C 273.653 41.600,272.887 41.151,272.167 40.602 C 271.448 40.053,270.231 39.558,269.464 39.502 C 268.426 39.426,268.172 39.276,268.471 38.916 C 268.766 38.559,268.654 38.474,268.044 38.592 C 267.589 38.679,267.234 38.627,267.256 38.475 C 267.366 37.699,267.144 37.468,266.800 38.000 C 266.464 38.520,266.411 38.512,266.406 37.940 C 266.400 37.266,263.989 35.600,263.020 35.600 C 262.726 35.600,262.382 35.330,262.255 35.000 C 262.129 34.670,261.668 34.400,261.231 34.400 C 260.246 34.400,258.400 33.584,258.400 33.148 C 258.400 32.971,258.085 32.938,257.700 33.076 C 257.315 33.214,257.126 33.187,257.281 33.016 C 257.571 32.695,256.638 31.534,256.159 31.620 C 256.011 31.647,255.737 31.428,255.551 31.134 C 255.273 30.695,255.211 30.700,255.206 31.158 C 255.202 31.503,254.825 31.312,254.219 30.658 C 253.680 30.076,252.960 29.600,252.619 29.600 C 252.279 29.600,252.000 29.294,252.000 28.920 C 252.000 28.395,251.892 28.348,251.525 28.715 C 251.159 29.081,250.869 29.030,250.257 28.495 C 249.820 28.113,249.605 28.042,249.779 28.338 C 250.004 28.722,249.885 28.836,249.365 28.736 C 248.964 28.659,248.529 28.147,248.398 27.598 C 248.193 26.733,247.964 26.612,246.681 26.691 C 245.576 26.759,245.200 26.626,245.200 26.167 C 245.200 25.829,245.020 25.664,244.800 25.800 C 244.580 25.936,244.400 25.792,244.400 25.480 C 244.400 24.875,242.839 23.524,242.245 23.614 C 242.049 23.644,241.763 23.464,241.609 23.214 C 241.454 22.964,240.944 22.731,240.474 22.696 C 240.005 22.660,239.527 22.388,239.413 22.090 C 239.299 21.793,239.035 21.655,238.827 21.784 C 238.400 22.047,236.734 20.430,236.996 20.006 C 237.089 19.856,236.920 19.733,236.621 19.733 C 236.306 19.733,236.172 19.982,236.302 20.321 C 236.449 20.706,236.332 20.843,235.964 20.717 C 235.638 20.606,235.450 20.120,235.518 19.563 C 235.602 18.875,235.531 18.754,235.269 19.140 C 234.830 19.789,233.069 18.535,233.482 17.867 C 233.617 17.648,233.517 17.604,233.255 17.766 C 232.998 17.925,232.889 18.221,233.014 18.423 C 233.139 18.625,232.962 18.684,232.621 18.553 C 232.279 18.422,232.000 18.143,232.000 17.934 C 232.000 17.724,231.820 17.664,231.600 17.800 C 231.380 17.936,231.199 17.812,231.197 17.524 C 231.195 17.236,230.745 16.792,230.197 16.538 C 229.584 16.254,229.200 16.228,229.200 16.471 C 229.200 16.689,229.007 16.802,228.770 16.723 C 228.534 16.645,228.353 16.449,228.370 16.290 C 228.436 15.652,226.866 14.526,225.962 14.562 C 225.361 14.586,225.041 14.401,225.110 14.070 C 225.170 13.779,225.037 13.653,224.814 13.791 C 224.592 13.929,223.723 13.357,222.883 12.521 C 221.237 10.880,220.764 10.655,219.147 10.746 C 218.409 10.788,218.034 10.572,217.890 10.023 C 217.778 9.592,217.081 8.882,216.343 8.444 C 215.604 8.006,214.742 7.419,214.426 7.139 C 214.111 6.860,213.289 6.624,212.600 6.616 C 211.760 6.605,211.011 6.237,210.328 5.500 C 209.767 4.895,209.119 4.400,208.887 4.400 C 208.656 4.400,208.407 4.265,208.333 4.100 C 208.074 3.517,205.593 2.357,205.167 2.620 C 204.752 2.877,203.319 1.271,203.489 0.741 C 203.535 0.599,203.191 0.582,202.724 0.704 C 202.110 0.865,201.961 0.787,202.186 0.423 C 202.433 0.023,202.313 0.018,201.597 0.401 C 200.878 0.787,200.630 0.775,200.355 0.341 C 200.105 -0.054,200.011 -0.066,200.006 0.297 C 200.000 0.817,198.958 0.800,198.105 0.268 C 197.773 0.060,197.683 0.150,197.832 0.539 M200.558 85.815 C 200.896 86.153,201.721 86.468,202.390 86.515 C 203.176 86.570,203.539 86.777,203.416 87.100 C 203.307 87.385,203.533 87.600,203.943 87.600 C 204.338 87.600,205.083 88.050,205.600 88.600 C 206.117 89.150,206.778 89.600,207.070 89.600 C 207.361 89.600,207.600 89.801,207.600 90.047 C 207.600 90.307,208.016 90.414,208.600 90.302 C 209.358 90.157,209.600 90.280,209.600 90.810 C 209.600 91.621,211.731 92.109,212.391 91.449 C 212.670 91.170,212.800 91.256,212.800 91.720 C 212.800 92.094,212.980 92.400,213.200 92.400 C 213.420 92.400,213.555 92.625,213.500 92.900 C 213.438 93.211,213.853 93.400,214.596 93.400 C 215.374 93.400,215.808 93.610,215.835 94.000 C 215.924 95.241,216.019 95.307,216.760 94.636 C 217.222 94.218,217.618 94.105,217.769 94.349 C 217.905 94.570,217.698 94.955,217.308 95.206 C 216.645 95.632,216.647 95.646,217.345 95.426 C 217.886 95.255,218.028 95.351,217.865 95.775 C 217.720 96.152,217.832 96.286,218.180 96.153 C 218.476 96.039,219.097 96.352,219.559 96.848 C 220.022 97.345,220.400 97.606,220.400 97.429 C 220.400 97.253,220.872 97.417,221.449 97.795 C 222.027 98.174,222.359 98.257,222.187 97.980 C 221.986 97.653,222.038 97.577,222.338 97.762 C 222.592 97.919,222.800 98.287,222.800 98.581 C 222.800 99.222,223.900 99.709,224.504 99.336 C 224.765 99.174,224.848 99.299,224.713 99.651 C 224.557 100.055,224.797 100.258,225.498 100.316 C 226.052 100.362,226.859 100.805,227.291 101.300 C 227.723 101.795,228.331 102.147,228.643 102.081 C 228.955 102.016,229.311 102.225,229.434 102.545 C 229.745 103.355,231.548 103.741,232.261 103.150 C 232.728 102.762,232.821 102.778,232.723 103.232 C 232.655 103.545,232.420 103.948,232.200 104.130 C 231.980 104.311,232.431 104.356,233.202 104.230 C 234.479 104.021,234.654 104.112,235.154 105.241 C 235.563 106.165,235.790 106.343,236.045 105.940 C 236.298 105.541,236.389 105.530,236.394 105.900 C 236.397 106.175,236.670 106.400,237.000 106.400 C 237.330 106.400,237.614 106.625,237.632 106.900 C 237.657 107.300,237.704 107.300,237.865 106.900 C 238.196 106.079,238.798 106.334,238.695 107.252 C 238.632 107.815,238.850 108.144,239.335 108.222 C 239.739 108.287,240.369 108.578,240.735 108.870 C 241.798 109.718,243.307 110.496,243.035 110.057 C 242.899 109.836,242.970 109.542,243.193 109.404 C 243.417 109.266,243.600 109.418,243.600 109.743 C 243.600 110.068,243.825 110.425,244.100 110.536 C 244.476 110.689,244.452 110.844,244.000 111.163 C 243.670 111.397,243.589 111.591,243.820 111.594 C 244.051 111.597,244.438 111.402,244.680 111.160 C 245.001 110.839,245.189 110.935,245.371 111.510 C 245.535 112.024,245.978 112.300,246.641 112.300 C 247.201 112.300,247.871 112.529,248.130 112.809 C 248.497 113.206,248.477 113.247,248.038 112.997 C 247.662 112.782,247.571 112.829,247.762 113.138 C 247.919 113.392,248.454 113.600,248.951 113.600 C 249.449 113.600,250.247 114.050,250.725 114.600 C 251.203 115.150,251.866 115.600,252.197 115.600 C 252.529 115.600,252.800 115.780,252.800 116.000 C 252.800 116.220,253.250 116.400,253.800 116.400 C 254.350 116.400,254.800 116.601,254.800 116.847 C 254.800 117.107,255.216 117.214,255.800 117.102 C 256.350 116.997,256.800 117.060,256.800 117.243 C 256.800 117.426,257.080 117.467,257.423 117.336 C 257.913 117.148,258.020 117.343,257.923 118.248 C 257.804 119.366,257.850 119.398,259.500 119.324 C 260.770 119.268,261.200 119.399,261.200 119.842 C 261.200 120.174,261.490 120.383,261.859 120.318 C 262.221 120.253,262.592 120.413,262.683 120.674 C 262.795 120.993,262.444 121.097,261.612 120.991 C 260.890 120.900,260.473 120.994,260.611 121.217 C 260.741 121.428,261.557 121.600,262.424 121.600 C 263.291 121.600,264.000 121.780,264.000 122.000 C 264.000 122.220,264.360 122.400,264.800 122.400 C 265.240 122.400,265.600 122.591,265.600 122.824 C 265.600 123.057,265.375 123.118,265.100 122.959 C 264.810 122.792,264.740 122.824,264.933 123.036 C 265.270 123.404,265.458 123.459,266.667 123.550 C 267.033 123.578,267.228 123.705,267.100 123.833 C 266.800 124.133,268.104 125.524,268.492 125.318 C 268.652 125.233,269.192 125.390,269.692 125.667 C 270.191 125.945,270.752 126.178,270.938 126.186 C 271.124 126.194,271.686 126.715,272.188 127.343 C 272.825 128.143,273.189 128.341,273.400 128.001 C 273.627 127.633,273.770 127.628,273.989 127.982 C 274.148 128.240,274.846 128.466,275.539 128.486 C 276.499 128.513,276.800 128.703,276.800 129.282 C 276.800 129.766,277.235 130.193,278.000 130.460 C 278.660 130.690,279.200 131.051,279.200 131.263 C 279.200 131.474,279.360 131.549,279.555 131.428 C 279.750 131.307,280.132 131.477,280.404 131.804 C 280.676 132.132,281.429 132.400,282.078 132.400 C 282.726 132.400,283.527 132.670,283.857 133.000 C 284.187 133.330,284.264 133.600,284.029 133.600 C 283.261 133.600,283.578 134.228,284.376 134.288 C 284.803 134.320,285.232 134.044,285.329 133.673 C 285.448 133.224,285.523 133.316,285.554 133.949 C 285.593 134.746,285.696 134.818,286.200 134.400 C 286.707 133.979,286.800 134.064,286.800 134.951 C 286.800 135.550,287.025 136.000,287.325 136.000 C 287.613 136.000,288.198 136.320,288.625 136.712 C 289.051 137.103,289.715 137.360,290.100 137.282 C 290.487 137.204,290.800 137.380,290.800 137.674 C 290.800 137.968,291.179 138.444,291.642 138.733 C 292.105 139.022,292.366 139.068,292.221 138.834 C 292.061 138.575,292.199 138.502,292.577 138.646 C 292.917 138.777,293.096 139.045,292.974 139.242 C 292.643 139.778,293.366 139.674,293.937 139.103 C 294.332 138.708,294.507 138.726,294.796 139.193 C 295.030 139.572,294.988 139.887,294.679 140.083 C 294.348 140.294,294.403 140.390,294.857 140.394 C 295.219 140.397,295.624 140.685,295.757 141.033 C 295.891 141.382,296.225 141.588,296.500 141.493 C 297.037 141.307,298.628 142.368,298.693 142.955 C 298.714 143.151,298.928 143.432,299.169 143.581 C 299.503 143.787,299.817 225.483,299.601 256.200 C 299.597 256.782,299.425 257.048,298.740 257.527 C 298.325 257.817,298.063 258.179,298.157 258.331 C 298.251 258.483,297.759 258.605,297.064 258.603 C 296.045 258.601,295.825 258.746,295.930 259.354 C 296.027 259.920,295.891 260.044,295.385 259.850 C 294.913 259.669,294.775 259.757,294.924 260.145 C 295.072 260.532,294.817 260.700,294.085 260.700 C 293.507 260.700,292.966 260.902,292.883 261.150 C 292.801 261.397,292.268 261.600,291.700 261.600 C 291.132 261.600,290.784 261.717,290.927 261.860 C 291.349 262.282,289.244 263.992,288.605 263.747 C 287.987 263.510,286.800 264.447,286.800 265.171 C 286.800 265.407,286.609 265.600,286.376 265.600 C 286.143 265.600,286.072 265.407,286.218 265.170 C 286.404 264.870,286.260 264.862,285.742 265.141 C 285.334 265.361,284.685 265.639,284.300 265.758 C 283.884 265.887,283.600 266.371,283.600 266.950 C 283.600 267.728,283.438 267.883,282.800 267.716 C 282.360 267.601,282.000 267.320,282.000 267.091 C 282.000 266.863,281.550 267.199,281.000 267.838 C 280.451 268.477,279.995 268.820,279.988 268.600 C 279.981 268.380,279.792 268.515,279.568 268.900 C 279.344 269.285,278.837 269.600,278.442 269.600 C 277.623 269.600,276.261 270.928,276.666 271.332 C 276.813 271.480,276.633 271.600,276.267 271.600 C 275.900 271.600,275.587 271.915,275.572 272.300 C 275.549 272.881,275.498 272.897,275.272 272.392 C 274.969 271.715,274.243 271.607,273.733 272.164 C 273.536 272.380,273.629 272.395,273.962 272.202 C 274.328 271.990,274.429 272.029,274.253 272.314 C 274.105 272.554,273.627 272.682,273.192 272.598 C 272.756 272.515,272.400 272.588,272.400 272.762 C 272.400 272.936,271.995 273.273,271.500 273.512 C 271.005 273.751,270.825 273.958,271.100 273.973 C 271.375 273.988,271.600 274.144,271.600 274.320 C 271.600 274.496,271.015 274.582,270.300 274.511 C 269.169 274.399,268.858 274.592,267.904 275.991 C 266.861 277.521,266.000 278.068,266.000 277.200 C 266.000 276.980,266.315 276.786,266.700 276.768 C 267.140 276.749,267.209 276.660,266.887 276.531 C 266.604 276.417,266.117 276.537,265.804 276.797 C 265.491 277.056,265.019 277.136,264.756 276.973 C 264.452 276.785,264.381 276.846,264.562 277.138 C 264.732 277.414,264.588 277.600,264.204 277.600 C 263.851 277.600,263.345 278.100,263.081 278.711 C 262.780 279.406,262.352 279.772,261.937 279.688 C 261.573 279.615,261.157 279.746,261.014 279.978 C 260.870 280.210,260.313 280.400,259.776 280.400 C 259.239 280.400,258.800 280.580,258.800 280.800 C 258.800 281.020,258.530 281.200,258.200 281.200 C 257.870 281.200,257.600 281.521,257.600 281.913 C 257.600 282.393,257.258 282.654,256.551 282.712 C 255.609 282.790,255.558 282.728,256.045 282.100 C 256.666 281.297,256.219 281.623,253.660 283.839 C 252.923 284.478,252.113 285.026,251.860 285.058 C 250.628 285.213,249.600 285.748,249.600 286.234 C 249.600 286.532,249.353 286.680,249.052 286.564 C 248.750 286.449,248.223 286.634,247.880 286.977 C 247.537 287.320,247.073 287.600,246.848 287.600 C 246.624 287.600,246.280 287.886,246.084 288.236 C 245.888 288.586,245.609 288.856,245.464 288.836 C 244.509 288.706,244.253 288.846,244.800 289.200 C 245.167 289.437,245.214 289.590,244.920 289.594 C 244.656 289.597,244.246 289.285,244.010 288.900 C 243.686 288.372,243.594 288.347,243.637 288.800 C 243.776 290.246,243.578 290.877,243.049 290.674 C 242.746 290.558,242.269 290.673,241.990 290.931 C 241.612 291.281,241.549 291.282,241.743 290.935 C 242.039 290.407,240.999 290.450,240.512 290.986 C 240.340 291.174,240.453 291.182,240.762 291.002 C 241.140 290.783,241.230 290.828,241.038 291.138 C 240.881 291.392,240.493 291.600,240.176 291.600 C 239.859 291.600,239.600 291.853,239.600 292.163 C 239.600 292.517,239.321 292.652,238.845 292.528 C 238.430 292.419,237.971 292.524,237.824 292.761 C 237.660 293.026,237.796 293.100,238.179 292.953 C 238.521 292.822,238.800 292.914,238.800 293.157 C 238.800 293.401,238.215 293.606,237.500 293.613 C 236.109 293.626,235.095 294.214,234.716 295.226 C 234.564 295.634,234.060 295.822,233.269 295.768 C 232.351 295.704,231.844 295.959,231.189 296.814 C 230.647 297.521,230.093 297.857,229.712 297.711 C 229.365 297.578,228.941 297.762,228.731 298.138 C 228.527 298.502,228.095 298.800,227.770 298.800 C 227.446 298.800,227.007 299.256,226.795 299.813 C 226.431 300.771,226.360 300.792,225.472 300.210 C 224.662 299.680,224.533 299.676,224.533 300.180 C 224.533 300.502,224.681 300.673,224.862 300.562 C 225.043 300.450,225.084 300.638,224.953 300.979 C 224.822 301.321,224.273 301.600,223.734 301.600 C 223.194 301.600,222.856 301.768,222.983 301.972 C 223.109 302.177,223.030 302.458,222.807 302.596 C 222.583 302.734,222.400 302.683,222.400 302.483 C 222.400 302.278,221.801 302.307,221.024 302.550 C 220.267 302.787,219.718 303.052,219.805 303.138 C 220.123 303.457,218.775 304.457,217.901 304.550 C 217.406 304.603,216.971 304.800,216.936 304.987 C 216.901 305.175,216.582 305.490,216.227 305.689 C 215.873 305.887,215.691 306.224,215.823 306.437 C 215.968 306.672,215.484 306.762,214.605 306.665 C 213.366 306.529,213.018 306.678,212.290 307.663 C 211.819 308.300,211.206 308.734,210.928 308.628 C 210.650 308.521,210.187 308.651,209.899 308.917 C 208.435 310.266,207.425 310.985,207.956 310.300 C 208.254 309.915,208.315 309.600,208.092 309.600 C 207.466 309.600,207.209 310.649,207.711 311.151 C 208.403 311.843,207.554 311.683,206.771 310.974 C 206.245 310.498,206.007 310.465,205.778 310.836 C 205.575 311.165,205.660 311.233,206.038 311.047 C 206.347 310.895,206.270 311.002,205.866 311.285 C 205.463 311.568,204.653 312.205,204.066 312.700 C 203.480 313.194,202.706 313.599,202.346 313.600 C 201.986 313.600,201.176 313.869,200.546 314.198 C 199.220 314.889,198.152 314.970,197.803 314.405 C 197.663 314.178,197.823 314.111,198.179 314.247 C 198.521 314.378,198.800 314.302,198.800 314.078 C 198.800 313.854,198.327 313.722,197.750 313.786 C 197.016 313.866,196.643 313.686,196.513 313.188 C 196.347 312.553,195.088 311.847,194.312 311.953 C 194.154 311.974,193.841 311.649,193.616 311.231 C 193.204 310.459,192.608 310.368,191.700 310.935 C 191.385 311.132,191.200 311.029,191.200 310.657 C 191.200 310.332,191.425 309.976,191.700 309.865 C 192.158 309.680,190.638 309.429,189.870 309.563 C 189.689 309.594,189.640 309.459,189.761 309.263 C 190.187 308.573,188.408 307.351,187.945 308.016 C 187.637 308.459,187.490 308.479,187.336 308.100 C 187.225 307.825,186.878 307.600,186.567 307.600 C 186.255 307.600,186.000 307.358,186.000 307.061 C 186.000 306.765,184.875 305.940,183.500 305.229 C 182.125 304.518,180.795 303.674,180.546 303.354 C 180.031 302.694,178.400 302.265,178.400 302.790 C 178.400 302.979,178.625 303.224,178.900 303.335 C 179.199 303.456,179.118 303.550,178.700 303.568 C 178.315 303.586,178.000 303.330,178.000 303.000 C 178.000 302.670,177.809 302.400,177.576 302.400 C 177.343 302.400,177.264 302.220,177.400 302.000 C 177.536 301.780,177.367 301.600,177.024 301.600 C 176.681 301.600,176.400 301.336,176.400 301.013 C 176.400 300.686,176.162 300.516,175.864 300.631 C 175.569 300.744,175.097 300.558,174.815 300.218 C 174.533 299.878,174.069 299.600,173.784 299.600 C 173.500 299.600,173.200 299.401,173.119 299.158 C 173.038 298.914,172.361 298.684,171.616 298.647 C 170.870 298.609,170.186 298.358,170.096 298.089 C 170.007 297.820,169.588 297.600,169.167 297.600 C 168.718 297.600,168.400 297.324,168.400 296.933 C 168.400 296.567,168.291 296.376,168.157 296.509 C 168.024 296.643,167.709 296.579,167.457 296.369 C 165.501 294.729,165.055 294.443,164.748 294.632 C 164.557 294.750,164.400 294.652,164.400 294.414 C 164.400 294.175,163.950 293.809,163.400 293.600 C 162.850 293.391,162.400 293.014,162.400 292.763 C 162.400 292.503,162.055 292.397,161.599 292.516 C 161.124 292.640,160.662 292.482,160.463 292.127 C 160.279 291.798,159.964 291.544,159.764 291.564 C 159.564 291.584,159.378 291.420,159.350 291.200 C 159.236 290.284,159.172 290.225,158.850 290.733 C 158.458 291.351,156.421 289.725,156.372 288.754 C 156.354 288.400,156.244 288.452,156.067 288.899 C 155.817 289.531,155.684 289.500,154.695 288.583 C 154.053 287.987,153.597 287.781,153.594 288.084 C 153.589 288.475,153.502 288.464,153.234 288.042 C 153.036 287.728,152.594 287.594,152.225 287.735 C 151.808 287.895,151.475 287.735,151.310 287.293 C 150.975 286.401,149.980 285.629,149.143 285.613 C 148.781 285.606,148.375 285.311,148.239 284.958 C 148.096 284.584,147.739 284.415,147.381 284.552 C 147.035 284.685,146.671 284.529,146.542 284.193 C 146.417 283.867,146.074 283.600,145.781 283.600 C 145.487 283.600,145.119 283.392,144.962 283.138 C 144.773 282.833,144.854 282.786,145.200 283.000 C 145.530 283.204,145.627 283.167,145.461 282.899 C 145.317 282.666,144.811 282.577,144.337 282.701 C 143.774 282.848,143.568 282.775,143.744 282.491 C 143.892 282.251,143.802 281.925,143.545 281.766 C 143.269 281.595,143.183 281.649,143.336 281.896 C 143.479 282.127,143.326 282.419,142.998 282.546 C 142.635 282.685,142.400 282.544,142.400 282.187 C 142.400 281.864,142.130 281.600,141.800 281.600 C 141.470 281.600,141.245 281.375,141.300 281.100 C 141.355 280.825,141.085 280.625,140.700 280.656 C 140.315 280.686,140.000 280.540,140.000 280.332 C 140.000 280.123,139.820 280.064,139.600 280.200 C 139.380 280.336,139.200 280.257,139.200 280.024 C 139.200 279.791,138.919 279.600,138.576 279.600 C 138.233 279.600,138.056 279.433,138.182 279.229 C 138.308 279.025,138.049 278.743,137.606 278.602 C 137.163 278.461,136.800 278.178,136.800 277.973 C 136.800 277.768,136.372 277.600,135.849 277.600 C 135.326 277.600,134.667 277.322,134.385 276.982 C 134.103 276.642,133.621 276.460,133.315 276.577 C 133.002 276.697,132.868 276.613,133.009 276.385 C 133.147 276.162,132.707 275.786,132.030 275.551 C 131.354 275.315,130.800 274.947,130.800 274.734 C 130.800 274.521,130.440 274.460,130.000 274.600 C 129.432 274.780,129.200 274.672,129.200 274.227 C 129.200 273.867,128.860 273.600,128.400 273.600 C 127.942 273.600,127.600 273.333,127.600 272.976 C 127.600 272.633,127.435 272.455,127.232 272.580 C 127.030 272.705,126.572 272.515,126.214 272.157 C 125.761 271.704,125.193 271.581,124.339 271.752 C 123.167 271.987,123.126 271.950,123.385 270.899 C 123.604 270.013,123.558 269.897,123.148 270.300 C 122.430 271.006,121.979 270.920,122.281 270.134 C 122.431 269.742,122.373 269.569,122.139 269.714 C 121.921 269.849,121.426 269.589,121.038 269.136 C 120.494 268.500,120.046 268.368,119.067 268.556 C 118.299 268.703,118.010 268.664,118.334 268.455 C 118.757 268.182,118.725 268.057,118.176 267.846 C 117.796 267.700,117.594 267.472,117.727 267.340 C 118.058 267.009,115.226 265.601,114.215 265.594 C 113.542 265.589,113.505 265.520,114.000 265.200 C 114.620 264.799,114.313 264.656,113.100 264.779 C 112.702 264.820,112.400 264.581,112.400 264.225 C 112.400 263.586,111.997 263.443,110.619 263.593 C 109.917 263.669,109.896 263.605,110.419 262.962 C 110.780 262.517,110.810 262.361,110.497 262.549 C 110.213 262.719,109.722 262.579,109.368 262.226 C 109.024 261.881,108.396 261.600,107.971 261.600 C 107.547 261.600,107.245 261.383,107.300 261.118 C 107.355 260.853,107.040 260.633,106.600 260.628 C 106.160 260.624,105.575 260.346,105.299 260.010 C 104.856 259.471,104.825 259.476,105.026 260.060 C 105.152 260.422,105.062 260.838,104.827 260.983 C 104.592 261.128,104.378 261.057,104.350 260.824 C 104.187 259.438,103.533 258.340,102.994 258.547 C 102.718 258.653,102.135 258.490,101.698 258.184 C 101.262 257.878,100.791 257.742,100.653 257.881 C 100.514 258.020,100.400 257.923,100.400 257.667 C 100.400 257.410,100.665 257.200,100.989 257.200 C 101.505 257.200,101.580 250.200,101.594 200.800 C 101.609 150.707,101.543 144.400,101.005 144.400 C 100.672 144.400,100.400 144.220,100.400 144.000 C 100.400 143.780,100.535 143.645,100.700 143.700 C 100.865 143.755,101.056 143.620,101.124 143.400 C 101.385 142.559,102.985 141.185,103.481 141.376 C 103.972 141.564,104.188 140.883,104.022 139.666 C 103.978 139.343,104.237 139.194,104.675 139.290 C 105.074 139.376,105.355 139.662,105.300 139.924 C 105.171 140.539,105.621 140.510,106.494 139.848 C 106.875 139.558,107.055 139.175,106.894 138.996 C 106.732 138.818,106.810 138.792,107.068 138.940 C 107.325 139.087,107.819 138.924,108.165 138.578 C 108.511 138.232,109.020 138.064,109.297 138.204 C 109.574 138.345,109.440 138.157,109.000 137.788 C 108.211 137.126,108.213 137.121,109.128 137.394 C 109.860 137.613,110.102 137.496,110.274 136.840 C 110.393 136.383,110.645 136.104,110.834 136.221 C 111.022 136.337,111.767 136.118,112.488 135.734 C 113.210 135.350,113.935 135.073,114.100 135.118 C 114.265 135.163,114.400 135.020,114.400 134.800 C 114.400 134.580,114.807 134.400,115.305 134.400 C 115.804 134.400,116.547 133.951,116.961 133.400 C 117.410 132.803,118.132 132.389,118.756 132.372 C 119.698 132.347,119.722 132.310,119.000 132.000 C 118.287 131.694,118.318 131.653,119.282 131.628 C 120.837 131.588,123.431 129.730,123.275 128.769 C 123.147 127.984,123.771 127.705,124.178 128.364 C 124.302 128.565,124.717 128.669,125.102 128.595 C 125.486 128.521,126.010 128.447,126.267 128.431 C 126.523 128.414,126.914 127.905,127.135 127.300 C 127.356 126.695,127.551 126.427,127.568 126.703 C 127.613 127.407,129.200 126.409,129.200 125.677 C 129.200 125.344,129.474 125.233,129.932 125.379 C 130.723 125.630,132.400 124.435,132.400 123.621 C 132.400 123.301,132.773 123.218,133.500 123.376 C 134.342 123.559,134.866 123.368,135.736 122.558 C 136.360 121.977,137.440 121.450,138.136 121.388 C 138.831 121.326,139.355 121.078,139.300 120.837 C 139.245 120.597,139.451 120.400,139.757 120.400 C 140.064 120.400,140.417 120.133,140.542 119.807 C 140.687 119.429,141.030 119.311,141.485 119.482 C 142.116 119.718,142.135 119.670,141.643 119.066 C 141.151 118.461,141.171 118.414,141.809 118.659 C 142.285 118.842,142.438 118.786,142.259 118.496 C 142.109 118.253,142.198 117.925,142.455 117.766 C 142.748 117.585,142.816 117.650,142.638 117.938 C 142.257 118.554,142.902 118.528,143.579 117.900 C 144.012 117.498,144.059 117.504,143.817 117.930 C 143.403 118.659,145.006 117.735,146.296 116.500 C 146.813 116.005,147.408 115.600,147.618 115.600 C 147.828 115.600,148.000 115.360,148.000 115.067 C 148.000 114.773,148.225 114.514,148.500 114.490 C 148.775 114.466,149.360 114.360,149.800 114.254 C 150.240 114.148,150.837 114.047,151.127 114.031 C 151.468 114.011,151.564 113.718,151.400 113.200 C 151.117 112.308,152.196 112.016,152.512 112.900 C 152.756 113.584,153.229 113.076,153.307 112.045 C 153.342 111.580,153.531 111.200,153.728 111.200 C 153.925 111.200,153.982 111.470,153.855 111.800 C 153.729 112.130,153.780 112.400,153.970 112.400 C 154.159 112.400,154.415 112.139,154.537 111.819 C 154.664 111.489,155.114 111.306,155.580 111.396 C 156.467 111.567,156.718 110.995,155.900 110.665 C 155.625 110.554,155.991 110.449,156.713 110.432 C 157.509 110.412,158.119 110.155,158.264 109.777 C 158.396 109.434,158.750 109.249,159.052 109.364 C 159.353 109.480,159.600 109.330,159.600 109.031 C 159.600 108.732,160.071 108.368,160.647 108.224 C 161.223 108.079,161.580 107.847,161.441 107.707 C 161.169 107.436,163.863 106.036,164.700 106.014 C 164.975 106.006,165.200 105.809,165.200 105.576 C 165.200 105.343,165.380 105.264,165.600 105.400 C 165.820 105.536,166.000 105.367,166.000 105.024 C 166.000 104.663,166.343 104.400,166.813 104.400 C 167.259 104.400,167.728 104.131,167.854 103.802 C 167.981 103.474,168.245 103.304,168.441 103.425 C 168.945 103.737,170.200 102.720,170.200 102.000 C 170.200 101.569,170.640 101.400,171.764 101.400 C 172.657 101.400,173.400 101.186,173.497 100.900 C 173.590 100.625,174.112 100.400,174.657 100.400 C 175.215 100.400,175.539 100.226,175.400 100.000 C 175.264 99.780,175.352 99.600,175.595 99.600 C 175.839 99.600,176.497 99.105,177.058 98.500 C 177.618 97.895,178.475 97.394,178.962 97.387 C 179.448 97.380,180.275 96.975,180.799 96.487 C 181.322 95.999,181.897 95.578,182.075 95.550 C 182.254 95.523,182.587 95.478,182.815 95.450 C 183.043 95.423,183.400 95.130,183.608 94.800 C 183.938 94.279,183.989 94.278,183.994 94.789 C 183.998 95.182,184.207 95.083,184.623 94.489 C 184.965 94.000,185.475 93.600,185.755 93.600 C 186.035 93.600,186.509 93.144,186.807 92.586 C 187.165 91.918,187.564 91.655,187.975 91.816 C 189.142 92.271,189.329 92.201,189.625 91.200 C 189.861 90.400,189.928 90.358,189.960 90.989 C 189.998 91.742,190.028 91.738,190.611 90.906 C 190.964 90.401,191.470 90.129,191.811 90.260 C 192.168 90.397,192.400 90.250,192.400 89.886 C 192.400 89.556,192.670 89.182,193.000 89.055 C 193.330 88.929,193.600 89.010,193.600 89.236 C 193.600 89.462,193.769 89.543,193.975 89.415 C 194.182 89.288,194.276 88.795,194.185 88.321 C 194.057 87.660,194.129 87.569,194.489 87.929 C 195.141 88.581,195.600 88.518,195.600 87.776 C 195.600 87.433,195.780 87.264,196.000 87.400 C 196.220 87.536,196.400 87.322,196.400 86.924 C 196.400 86.344,196.710 86.206,197.961 86.231 C 199.101 86.253,199.467 86.118,199.318 85.731 C 199.041 85.008,199.803 85.060,200.558 85.815 M173.194 100.900 C 173.197 101.065,173.020 101.200,172.800 101.200 C 172.580 101.200,172.403 100.795,172.406 100.300 C 172.412 99.441,173.176 100.023,173.194 100.900 M298.585 144.500 C 298.480 144.775,298.441 169.930,298.499 200.400 L 298.603 255.800 298.701 200.133 C 298.779 156.048,298.904 144.425,299.300 144.265 C 299.692 144.107,299.689 144.056,299.287 144.032 C 299.006 144.014,298.689 144.225,298.585 144.500 M34.668 305.065 C 34.550 305.183,34.242 305.150,33.984 304.990 C 33.636 304.775,33.655 304.613,34.057 304.363 C 34.591 304.031,35.108 304.626,34.668 305.065 M288.940 348.987 C 289.064 349.310,288.965 349.698,288.721 349.849 C 288.461 350.010,288.388 349.942,288.547 349.686 C 288.695 349.446,288.498 349.064,288.108 348.837 C 287.485 348.474,287.479 348.423,288.057 348.412 C 288.419 348.405,288.816 348.664,288.940 348.987 " stroke="none" fill="#245bdc" fill-rule="evenodd"></path><path id="path1" d="M192.875 3.225 C 192.971 3.514,193.286 3.829,193.575 3.925 C 193.875 4.025,194.025 3.875,193.925 3.575 C 193.829 3.286,193.514 2.971,193.225 2.875 C 192.925 2.775,192.775 2.925,192.875 3.225 M228.278 15.856 C 227.958 16.175,228.319 16.800,228.824 16.800 C 229.031 16.800,229.200 16.530,229.200 16.200 C 229.200 15.581,228.728 15.405,228.278 15.856 M235.439 19.938 C 235.300 20.161,235.382 20.465,235.620 20.612 C 236.235 20.993,236.632 20.472,236.118 19.958 C 235.831 19.671,235.607 19.664,235.439 19.938 M123.039 43.938 C 122.900 44.161,122.982 44.465,123.220 44.612 C 123.835 44.993,124.232 44.472,123.718 43.958 C 123.431 43.671,123.207 43.664,123.039 43.938 M351.200 87.400 C 351.200 87.767,351.394 88.002,351.630 87.923 C 351.867 87.844,352.060 87.609,352.060 87.400 C 352.060 87.191,351.867 86.956,351.630 86.877 C 351.394 86.798,351.200 87.033,351.200 87.400 M358.092 91.275 C 358.339 92.017,359.200 92.140,359.200 91.433 C 359.200 91.085,358.915 90.800,358.567 90.800 C 358.218 90.800,358.005 91.014,358.092 91.275 M217.067 94.267 C 216.642 94.691,216.755 95.097,217.361 95.330 C 217.693 95.457,217.888 95.316,217.839 94.984 C 217.730 94.245,217.398 93.936,217.067 94.267 M365.260 95.180 C 365.348 95.444,365.550 95.647,365.710 95.630 C 366.188 95.581,366.096 95.032,365.580 94.860 C 365.316 94.772,365.172 94.916,365.260 95.180 M172.406 100.300 C 172.403 100.795,172.580 101.200,172.800 101.200 C 173.301 101.200,173.301 100.776,172.800 100.000 C 172.486 99.515,172.411 99.572,172.406 100.300 M261.856 120.278 C 261.419 120.714,261.573 121.067,262.200 121.067 C 262.530 121.067,262.800 120.927,262.800 120.757 C 262.800 120.306,262.155 119.979,261.856 120.278 M123.200 128.600 C 123.200 128.967,123.394 129.202,123.630 129.123 C 123.867 129.044,124.060 128.809,124.060 128.600 C 124.060 128.391,123.867 128.156,123.630 128.077 C 123.394 127.998,123.200 128.233,123.200 128.600 M104.092 139.675 C 104.339 140.417,105.200 140.540,105.200 139.833 C 105.200 139.485,104.915 139.200,104.567 139.200 C 104.218 139.200,104.005 139.414,104.092 139.675 M104.272 259.884 C 104.151 260.079,104.198 260.474,104.376 260.762 C 104.622 261.160,104.771 261.171,104.995 260.808 C 105.157 260.545,105.110 260.150,104.890 259.930 C 104.667 259.707,104.394 259.686,104.272 259.884 M123.372 270.928 C 123.052 271.763,123.452 272.308,123.990 271.770 C 124.217 271.543,124.223 271.161,124.005 270.808 C 123.698 270.311,123.602 270.330,123.372 270.928 M261.826 279.158 C 261.704 279.355,261.874 279.619,262.202 279.746 C 262.565 279.885,262.800 279.744,262.800 279.387 C 262.800 278.740,262.175 278.593,261.826 279.158 M358.194 308.410 C 358.031 308.674,358.146 309.044,358.449 309.232 C 359.114 309.645,359.473 308.913,358.890 308.330 C 358.624 308.064,358.391 308.090,358.194 308.410 M351.200 312.613 C 351.200 313.260,351.825 313.407,352.174 312.842 C 352.296 312.645,352.126 312.381,351.798 312.254 C 351.435 312.115,351.200 312.256,351.200 312.613 M315.345 333.200 C 315.419 333.750,315.597 334.155,315.740 334.100 C 316.175 333.933,316.169 333.830,315.681 333.000 C 315.239 332.248,315.218 332.260,315.345 333.200 M286.400 350.400 C 286.400 351.147,286.507 351.253,286.880 350.880 C 287.253 350.507,287.253 350.293,286.880 349.920 C 286.507 349.547,286.400 349.653,286.400 350.400 M167.826 381.558 C 167.704 381.755,167.874 382.019,168.202 382.146 C 168.565 382.285,168.800 382.144,168.800 381.787 C 168.800 381.140,168.175 380.993,167.826 381.558 " stroke="none" fill="#2c5adc" fill-rule="evenodd"></path><path id="path2" d="M244.400 25.387 C 244.400 25.744,244.635 25.885,244.998 25.746 C 245.326 25.619,245.496 25.355,245.374 25.158 C 245.025 24.593,244.400 24.740,244.400 25.387 M257.067 117.467 C 256.606 117.927,256.775 118.400,257.400 118.400 C 257.730 118.400,258.000 118.130,258.000 117.800 C 258.000 117.175,257.527 117.006,257.067 117.467 M276.000 270.800 C 275.672 271.412,275.696 271.600,276.100 271.600 C 276.391 271.600,276.629 271.240,276.629 270.800 C 276.629 270.360,276.583 270.000,276.528 270.000 C 276.473 270.000,276.235 270.360,276.000 270.800 M34.057 304.363 C 33.655 304.613,33.636 304.775,33.984 304.990 C 34.533 305.329,34.945 305.029,34.742 304.438 C 34.658 304.196,34.376 304.165,34.057 304.363 " stroke="none" fill="#2464dc" fill-rule="evenodd"></path><path id="path3" d="M197.300 0.282 C 196.805 0.378,196.400 0.717,196.400 1.037 C 196.400 1.526,196.559 1.514,197.400 0.963 C 197.950 0.603,198.400 0.239,198.400 0.154 C 198.400 0.069,198.355 0.025,198.300 0.054 C 198.245 0.084,197.795 0.187,197.300 0.282 M204.400 2.000 C 204.400 2.220,204.670 2.400,205.000 2.400 C 205.330 2.400,205.600 2.220,205.600 2.000 C 205.600 1.780,205.330 1.600,205.000 1.600 C 204.670 1.600,204.400 1.780,204.400 2.000 M206.623 2.967 C 207.461 3.580,207.840 3.513,207.416 2.827 C 207.271 2.592,206.859 2.400,206.500 2.400 C 205.954 2.400,205.974 2.493,206.623 2.967 M190.800 4.000 C 190.800 4.220,190.530 4.400,190.200 4.400 C 189.870 4.400,189.600 4.574,189.600 4.787 C 189.600 5.309,191.314 4.659,191.513 4.062 C 191.597 3.808,191.472 3.600,191.233 3.600 C 190.995 3.600,190.800 3.780,190.800 4.000 M208.403 3.900 C 208.405 4.065,208.855 4.408,209.403 4.662 C 210.558 5.198,210.716 4.928,209.700 4.157 C 208.909 3.557,208.398 3.456,208.403 3.900 M211.200 6.233 C 211.200 6.582,211.414 6.795,211.675 6.708 C 212.417 6.461,212.540 5.600,211.833 5.600 C 211.485 5.600,211.200 5.885,211.200 6.233 M183.300 8.144 C 182.805 8.389,182.400 8.819,182.400 9.098 C 182.400 9.731,183.871 8.913,184.180 8.109 C 184.287 7.829,184.336 7.622,184.287 7.649 C 184.239 7.676,183.795 7.899,183.300 8.144 M218.100 10.100 C 218.352 10.857,219.600 10.964,219.600 10.229 C 219.600 9.858,219.258 9.600,218.767 9.600 C 218.278 9.600,218.002 9.807,218.100 10.100 M176.500 12.144 C 176.005 12.389,175.600 12.821,175.600 13.104 C 175.600 13.486,175.858 13.449,176.600 12.963 C 177.348 12.473,178.121 11.344,177.500 11.649 C 177.445 11.676,176.995 11.899,176.500 12.144 M225.292 14.075 C 225.539 14.817,226.400 14.940,226.400 14.233 C 226.400 13.885,226.115 13.600,225.767 13.600 C 225.418 13.600,225.205 13.814,225.292 14.075 M227.292 14.875 C 227.539 15.617,228.400 15.740,228.400 15.033 C 228.400 14.685,228.115 14.400,227.767 14.400 C 227.418 14.400,227.205 14.614,227.292 14.875 M169.300 16.175 C 168.286 16.642,168.084 17.600,169.000 17.600 C 169.330 17.600,169.600 17.345,169.600 17.033 C 169.600 16.722,169.825 16.386,170.100 16.288 C 170.375 16.190,170.510 16.031,170.400 15.935 C 170.290 15.838,169.795 15.946,169.300 16.175 M229.600 16.200 C 229.874 16.530,230.331 16.800,230.616 16.800 C 230.900 16.800,231.224 17.025,231.335 17.300 C 231.456 17.599,231.550 17.518,231.568 17.100 C 231.586 16.715,231.330 16.400,231.000 16.400 C 230.670 16.400,230.400 16.220,230.400 16.000 C 230.400 15.780,230.108 15.600,229.751 15.600 C 229.220 15.600,229.192 15.709,229.600 16.200 M164.584 18.827 C 164.117 19.581,164.721 19.701,165.663 19.041 L 166.578 18.400 165.713 18.400 C 165.237 18.400,164.729 18.592,164.584 18.827 M234.281 19.067 C 234.393 19.360,234.646 19.600,234.843 19.600 C 235.039 19.600,235.200 19.360,235.200 19.067 C 235.200 18.773,234.947 18.533,234.638 18.533 C 234.329 18.533,234.168 18.773,234.281 19.067 M237.013 20.415 C 237.735 21.212,238.403 21.446,238.397 20.900 C 238.395 20.735,237.923 20.382,237.348 20.115 C 236.326 19.640,236.318 19.647,237.013 20.415 M239.776 22.213 C 240.204 22.536,240.789 22.800,241.076 22.800 C 241.364 22.800,241.600 22.991,241.600 23.224 C 241.600 23.457,241.805 23.521,242.055 23.366 C 242.330 23.196,241.907 22.792,240.984 22.342 C 239.162 21.456,238.713 21.408,239.776 22.213 M154.533 25.080 C 154.533 25.765,154.986 25.740,155.581 25.023 C 155.972 24.552,155.919 24.456,155.297 24.503 C 154.877 24.534,154.533 24.794,154.533 25.080 M245.600 26.000 C 245.600 26.220,246.095 26.397,246.700 26.394 C 247.557 26.389,247.668 26.302,247.200 26.000 C 246.417 25.494,245.600 25.494,245.600 26.000 M150.667 26.667 C 150.218 27.115,150.369 27.600,150.957 27.600 C 151.264 27.600,151.618 27.330,151.745 27.000 C 151.975 26.399,151.181 26.153,150.667 26.667 M248.000 26.539 C 248.000 26.615,248.360 27.093,248.800 27.600 C 249.240 28.107,249.600 28.383,249.600 28.212 C 249.600 28.042,249.874 28.130,250.209 28.408 C 250.718 28.830,250.777 28.806,250.566 28.257 C 250.428 27.895,250.083 27.600,249.800 27.600 C 249.517 27.600,249.182 27.330,249.055 27.000 C 248.861 26.492,248.000 26.116,248.000 26.539 M254.900 30.676 C 255.285 30.776,255.600 31.036,255.600 31.253 C 255.600 31.470,255.799 31.524,256.043 31.374 C 256.582 31.040,255.707 30.392,254.800 30.453 C 254.375 30.481,254.404 30.546,254.900 30.676 M143.600 31.200 C 143.600 31.420,143.870 31.600,144.200 31.600 C 144.530 31.600,144.800 31.420,144.800 31.200 C 144.800 30.980,144.530 30.800,144.200 30.800 C 143.870 30.800,143.600 30.980,143.600 31.200 M140.584 32.827 C 140.160 33.513,140.539 33.580,141.377 32.967 C 142.026 32.493,142.046 32.400,141.500 32.400 C 141.141 32.400,140.729 32.592,140.584 32.827 M258.000 32.586 C 258.000 32.688,258.356 32.962,258.791 33.195 C 259.436 33.541,259.539 33.506,259.348 33.009 C 259.141 32.469,258.000 32.111,258.000 32.586 M267.200 37.751 C 267.200 37.834,267.470 38.126,267.800 38.400 C 268.291 38.808,268.400 38.780,268.400 38.249 C 268.400 37.892,268.130 37.600,267.800 37.600 C 267.470 37.600,267.200 37.668,267.200 37.751 M126.667 40.667 C 126.520 40.813,126.403 41.128,126.406 41.367 C 126.410 41.660,126.507 41.653,126.706 41.346 C 126.868 41.097,127.360 40.803,127.800 40.693 C 128.574 40.499,128.573 40.491,127.767 40.446 C 127.308 40.421,126.813 40.520,126.667 40.667 M272.623 40.967 C 273.461 41.580,273.840 41.513,273.416 40.827 C 273.271 40.592,272.859 40.400,272.500 40.400 C 271.954 40.400,271.974 40.493,272.623 40.967 M274.413 41.900 C 274.441 42.574,276.400 43.677,276.400 43.019 C 276.400 42.678,276.130 42.400,275.800 42.400 C 275.470 42.400,275.200 42.220,275.200 42.000 C 275.200 41.780,275.020 41.600,274.800 41.600 C 274.580 41.600,274.406 41.735,274.413 41.900 M278.000 44.200 C 278.274 44.530,278.757 44.800,279.073 44.800 C 279.389 44.800,279.536 44.980,279.400 45.200 C 279.264 45.420,279.433 45.600,279.776 45.600 C 280.119 45.600,280.400 45.330,280.400 45.000 C 280.400 44.627,280.022 44.400,279.400 44.400 C 278.850 44.400,278.400 44.220,278.400 44.000 C 278.400 43.780,278.198 43.600,277.951 43.600 C 277.641 43.600,277.656 43.785,278.000 44.200 M119.784 44.827 C 119.360 45.513,119.739 45.580,120.577 44.967 C 121.226 44.493,121.246 44.400,120.700 44.400 C 120.341 44.400,119.929 44.592,119.784 44.827 M118.216 45.973 C 118.071 46.208,117.603 46.400,117.176 46.400 C 116.749 46.400,116.400 46.670,116.400 47.000 C 116.400 47.330,116.642 47.600,116.938 47.600 C 117.575 47.600,119.028 46.095,118.704 45.771 C 118.581 45.648,118.361 45.739,118.216 45.973 M289.314 50.942 C 289.532 51.595,290.400 51.722,290.400 51.100 C 290.400 50.788,290.125 50.533,289.789 50.533 C 289.453 50.533,289.239 50.717,289.314 50.942 M105.867 52.667 C 105.418 53.115,105.569 53.600,106.157 53.600 C 106.464 53.600,106.818 53.330,106.945 53.000 C 107.175 52.399,106.381 52.153,105.867 52.667 M102.667 54.667 C 102.218 55.115,102.369 55.600,102.957 55.600 C 103.264 55.600,103.618 55.330,103.745 55.000 C 103.975 54.399,103.181 54.153,102.667 54.667 M97.600 58.000 C 97.600 58.501,98.024 58.501,98.800 58.000 C 99.285 57.686,99.228 57.611,98.500 57.606 C 98.005 57.603,97.600 57.780,97.600 58.000 M93.600 60.000 C 93.600 60.220,94.050 60.400,94.600 60.400 C 95.150 60.400,95.600 60.220,95.600 60.000 C 95.600 59.780,95.150 59.600,94.600 59.600 C 94.050 59.600,93.600 59.780,93.600 60.000 M305.277 60.030 C 305.356 60.267,305.591 60.460,305.800 60.460 C 306.009 60.460,306.245 60.267,306.323 60.030 C 306.402 59.794,306.167 59.600,305.800 59.600 C 305.433 59.600,305.198 59.794,305.277 60.030 M308.401 62.100 C 308.401 62.387,308.955 62.621,309.701 62.649 C 310.415 62.676,310.685 62.618,310.300 62.520 C 309.915 62.422,309.600 62.175,309.600 61.971 C 309.600 61.767,309.330 61.600,309.000 61.600 C 308.670 61.600,308.400 61.825,308.401 62.100 M80.400 67.933 C 80.400 68.190,79.950 68.400,79.400 68.400 C 78.778 68.400,78.400 68.627,78.400 69.000 C 78.400 69.330,78.588 69.600,78.817 69.600 C 79.440 69.600,80.983 68.050,80.671 67.738 C 80.522 67.589,80.400 67.677,80.400 67.933 M74.584 70.827 C 74.439 71.061,74.416 71.349,74.533 71.467 C 74.820 71.753,75.600 71.248,75.600 70.776 C 75.600 70.265,74.909 70.299,74.584 70.827 M324.277 71.056 C 324.399 71.374,324.670 71.577,324.879 71.507 C 325.532 71.289,325.433 70.681,324.728 70.578 C 324.286 70.513,324.131 70.677,324.277 71.056 M327.200 73.000 C 327.200 73.330,327.470 73.600,327.800 73.600 C 328.130 73.600,328.400 73.330,328.400 73.000 C 328.400 72.670,328.130 72.400,327.800 72.400 C 327.470 72.400,327.200 72.670,327.200 73.000 M68.176 74.987 C 67.517 75.486,67.499 75.576,68.057 75.587 C 68.419 75.594,68.818 75.330,68.945 75.000 C 69.231 74.255,69.147 74.253,68.176 74.987 M334.971 77.029 C 335.317 77.374,335.600 77.824,335.600 78.029 C 335.600 78.233,336.095 78.381,336.700 78.357 L 337.800 78.315 336.700 77.880 C 336.095 77.641,335.600 77.210,335.600 76.923 C 335.600 76.635,335.317 76.400,334.971 76.400 C 334.400 76.400,334.400 76.457,334.971 77.029 M340.907 80.964 C 341.664 81.721,342.535 81.806,342.302 81.100 C 342.211 80.825,341.717 80.539,341.204 80.464 C 340.350 80.339,340.325 80.382,340.907 80.964 M345.200 83.000 C 345.200 83.330,345.492 83.600,345.849 83.600 C 346.380 83.600,346.408 83.491,346.000 83.000 C 345.726 82.670,345.434 82.400,345.351 82.400 C 345.268 82.400,345.200 82.670,345.200 83.000 M347.982 84.869 C 348.915 85.739,349.600 85.813,349.600 85.045 C 349.600 84.735,349.071 84.413,348.399 84.314 C 347.218 84.141,347.211 84.150,347.982 84.869 M48.224 86.213 C 47.236 86.960,47.885 86.952,49.200 86.200 C 49.780 85.868,49.948 85.628,49.600 85.627 C 49.270 85.626,48.651 85.890,48.224 86.213 M350.400 86.024 C 350.400 86.257,350.553 86.353,350.739 86.237 C 350.926 86.122,351.478 86.400,351.966 86.854 C 352.454 87.309,352.941 87.592,353.049 87.484 C 353.246 87.287,351.087 85.600,350.638 85.600 C 350.507 85.600,350.400 85.791,350.400 86.024 M196.400 86.967 C 196.400 87.278,196.175 87.614,195.900 87.712 C 195.625 87.810,195.518 88.018,195.662 88.174 C 195.943 88.478,197.600 87.228,197.600 86.711 C 197.600 86.540,197.330 86.400,197.000 86.400 C 196.670 86.400,196.400 86.655,196.400 86.967 M355.044 88.971 C 355.328 89.710,356.545 89.835,356.300 89.100 C 356.209 88.825,355.834 88.542,355.468 88.471 C 355.004 88.381,354.876 88.532,355.044 88.971 M41.300 90.144 C 40.805 90.389,40.400 90.824,40.400 91.111 C 40.400 91.490,40.536 91.515,40.900 91.202 C 41.175 90.966,41.760 90.515,42.200 90.199 C 43.132 89.531,42.603 89.499,41.300 90.144 M38.400 92.200 C 38.400 92.530,38.670 92.800,39.000 92.800 C 39.330 92.800,39.600 92.530,39.600 92.200 C 39.600 91.870,39.330 91.600,39.000 91.600 C 38.670 91.600,38.400 91.870,38.400 92.200 M210.400 92.000 C 210.400 92.220,210.850 92.400,211.400 92.400 C 212.022 92.400,212.400 92.627,212.400 93.000 C 212.400 93.330,212.696 93.600,213.058 93.600 C 213.557 93.600,213.456 93.358,212.638 92.600 C 211.539 91.582,210.400 91.276,210.400 92.000 M361.687 92.600 C 362.837 93.667,363.774 93.925,363.502 93.100 C 363.411 92.825,362.946 92.542,362.469 92.472 C 361.991 92.402,361.600 92.177,361.600 91.972 C 361.600 91.767,361.377 91.600,361.104 91.600 C 360.831 91.600,361.093 92.050,361.687 92.600 M214.900 93.465 C 214.204 93.746,214.273 94.400,215.000 94.400 C 215.330 94.400,215.600 94.130,215.600 93.800 C 215.600 93.470,215.555 93.214,215.500 93.232 C 215.445 93.249,215.175 93.354,214.900 93.465 M31.455 96.200 C 31.320 96.552,31.450 96.800,31.770 96.800 C 32.069 96.800,32.418 96.530,32.545 96.200 C 32.680 95.848,32.550 95.600,32.230 95.600 C 31.931 95.600,31.582 95.870,31.455 96.200 M29.600 97.049 C 29.600 97.580,29.709 97.608,30.200 97.200 C 30.530 96.926,30.800 96.634,30.800 96.551 C 30.800 96.468,30.530 96.400,30.200 96.400 C 29.870 96.400,29.600 96.692,29.600 97.049 M369.600 97.000 C 369.600 97.330,369.780 97.600,370.000 97.600 C 370.220 97.600,370.400 97.330,370.400 97.000 C 370.400 96.670,370.220 96.400,370.000 96.400 C 369.780 96.400,369.600 96.670,369.600 97.000 M177.300 98.270 C 176.390 98.905,176.104 99.600,176.754 99.600 C 176.949 99.600,177.403 99.150,177.763 98.600 C 178.521 97.444,178.503 97.431,177.300 98.270 M373.200 98.751 C 373.200 98.944,373.470 99.326,373.800 99.600 C 374.451 100.141,374.533 100.011,374.157 99.033 C 373.900 98.363,373.200 98.157,373.200 98.751 M170.400 101.855 C 170.400 102.170,170.823 102.400,171.400 102.400 C 171.950 102.400,172.400 102.241,172.400 102.047 C 172.400 101.852,171.950 101.607,171.400 101.502 C 170.729 101.374,170.400 101.490,170.400 101.855 M233.600 105.000 C 233.600 105.330,233.870 105.600,234.200 105.600 C 234.530 105.600,234.800 105.330,234.800 105.000 C 234.800 104.670,234.530 104.400,234.200 104.400 C 233.870 104.400,233.600 104.670,233.600 105.000 M162.200 107.044 C 161.416 107.650,161.420 107.660,162.369 107.531 C 162.901 107.459,163.411 107.175,163.502 106.900 C 163.723 106.229,163.176 106.289,162.200 107.044 M236.655 107.000 C 236.782 107.330,237.131 107.600,237.430 107.600 C 237.750 107.600,237.880 107.352,237.745 107.000 C 237.618 106.670,237.269 106.400,236.970 106.400 C 236.650 106.400,236.520 106.648,236.655 107.000 M151.478 112.656 C 151.158 112.975,151.519 113.600,152.024 113.600 C 152.231 113.600,152.400 113.330,152.400 113.000 C 152.400 112.381,151.928 112.205,151.478 112.656 M248.400 114.000 C 248.400 114.220,248.670 114.400,249.000 114.400 C 249.330 114.400,249.600 114.220,249.600 114.000 C 249.600 113.780,249.330 113.600,249.000 113.600 C 248.670 113.600,248.400 113.780,248.400 114.000 M148.362 115.046 C 147.898 115.605,147.927 115.673,148.580 115.546 C 148.994 115.466,149.409 115.175,149.500 114.900 C 149.738 114.186,148.996 114.282,148.362 115.046 M254.000 117.000 C 254.274 117.330,254.746 117.600,255.049 117.600 C 255.352 117.600,255.600 117.780,255.600 118.000 C 255.600 118.220,255.885 118.400,256.233 118.400 C 257.170 118.400,256.680 117.421,255.669 117.272 C 255.191 117.202,254.800 116.977,254.800 116.772 C 254.800 116.567,254.508 116.400,254.151 116.400 C 253.620 116.400,253.592 116.509,254.000 117.000 M259.600 119.936 C 259.600 120.120,260.050 120.477,260.600 120.727 C 261.721 121.238,261.884 121.027,261.029 120.171 C 260.399 119.542,259.600 119.410,259.600 119.936 M137.100 121.476 C 136.245 121.699,136.169 122.400,137.000 122.400 C 137.330 122.400,137.600 122.233,137.600 122.029 C 137.600 121.825,137.915 121.576,138.300 121.476 C 138.752 121.358,138.788 121.293,138.400 121.293 C 138.070 121.293,137.485 121.375,137.100 121.476 M132.400 123.833 C 132.400 124.120,132.000 124.635,131.511 124.977 C 130.765 125.500,130.735 125.600,131.324 125.600 C 131.709 125.600,132.129 125.330,132.255 125.000 C 132.382 124.670,132.816 124.400,133.219 124.400 C 134.368 124.400,134.503 123.713,133.395 123.501 C 132.746 123.377,132.400 123.492,132.400 123.833 M129.200 125.767 C 129.200 126.115,129.485 126.400,129.833 126.400 C 130.540 126.400,130.417 125.539,129.675 125.292 C 129.414 125.205,129.200 125.418,129.200 125.767 M127.377 127.367 C 126.950 127.679,126.736 128.069,126.901 128.234 C 127.065 128.399,127.200 128.323,127.200 128.067 C 127.200 127.810,127.470 127.600,127.800 127.600 C 128.130 127.600,128.400 127.420,128.400 127.200 C 128.400 126.676,128.300 126.693,127.377 127.367 M274.500 128.900 C 274.591 129.175,274.966 129.458,275.332 129.529 C 275.796 129.619,275.924 129.468,275.756 129.029 C 275.472 128.290,274.255 128.165,274.500 128.900 M117.700 132.665 C 117.004 132.946,117.073 133.600,117.800 133.600 C 118.130 133.600,118.400 133.330,118.400 133.000 C 118.400 132.670,118.355 132.414,118.300 132.432 C 118.245 132.449,117.975 132.554,117.700 132.665 M281.600 133.000 C 281.600 133.330,281.851 133.600,282.157 133.600 C 282.464 133.600,282.818 133.330,282.945 133.000 C 283.101 132.592,282.923 132.400,282.387 132.400 C 281.954 132.400,281.600 132.670,281.600 133.000 M285.815 134.775 C 285.521 135.252,286.622 136.368,287.400 136.381 C 287.634 136.385,287.620 136.266,287.366 136.094 C 287.127 135.932,286.747 135.462,286.521 135.049 C 286.230 134.516,286.025 134.436,285.815 134.775 M112.576 135.787 C 111.990 136.231,111.947 136.375,112.400 136.375 C 112.730 136.375,113.349 136.110,113.776 135.787 C 114.363 135.344,114.406 135.200,113.953 135.200 C 113.623 135.200,113.004 135.464,112.576 135.787 M110.244 137.029 C 110.076 137.468,110.204 137.619,110.668 137.529 C 111.034 137.458,111.409 137.175,111.500 136.900 C 111.745 136.165,110.528 136.290,110.244 137.029 M298.705 200.815 C 298.614 249.958,298.524 257.276,298.012 257.593 C 297.688 257.793,297.524 258.057,297.647 258.181 C 297.771 258.304,298.215 258.025,298.636 257.561 C 299.513 256.591,300.082 144.400,299.210 144.400 C 298.947 144.400,298.775 163.667,298.705 200.815 M292.406 261.100 C 292.410 261.532,292.525 261.631,292.706 261.360 C 292.868 261.118,293.270 260.817,293.600 260.692 C 294.001 260.539,293.901 260.453,293.300 260.432 C 292.695 260.410,292.402 260.630,292.406 261.100 M110.195 263.052 C 110.685 263.542,110.967 263.593,111.306 263.254 C 111.556 263.004,111.679 262.787,111.580 262.770 C 111.481 262.754,110.981 262.663,110.469 262.568 C 109.606 262.408,109.586 262.443,110.195 263.052 M288.639 262.738 C 288.500 262.961,288.582 263.265,288.820 263.412 C 289.435 263.793,289.832 263.272,289.318 262.758 C 289.031 262.471,288.807 262.464,288.639 262.738 M117.305 266.677 C 117.693 266.778,117.923 267.001,117.817 267.172 C 117.712 267.343,118.069 267.685,118.613 267.933 C 119.217 268.208,119.600 268.231,119.600 267.991 C 119.600 267.776,119.349 267.600,119.043 267.600 C 118.736 267.600,118.382 267.330,118.255 267.000 C 118.129 266.670,117.704 266.421,117.313 266.446 C 116.639 266.490,116.638 266.503,117.305 266.677 M282.000 267.029 C 282.000 267.402,282.272 267.606,282.667 267.529 C 283.670 267.335,283.808 266.400,282.833 266.400 C 282.342 266.400,282.000 266.658,282.000 267.029 M129.200 274.233 C 129.200 274.582,129.414 274.795,129.675 274.708 C 130.417 274.461,130.540 273.600,129.833 273.600 C 129.485 273.600,129.200 273.885,129.200 274.233 M266.400 276.000 C 266.400 276.220,266.670 276.400,267.000 276.400 C 267.330 276.400,267.600 276.220,267.600 276.000 C 267.600 275.780,267.330 275.600,267.000 275.600 C 266.670 275.600,266.400 275.780,266.400 276.000 M134.400 277.000 C 134.674 277.330,135.078 277.600,135.298 277.600 C 135.521 277.600,135.478 277.335,135.200 277.000 C 134.926 276.670,134.522 276.400,134.302 276.400 C 134.079 276.400,134.122 276.665,134.400 277.000 M262.229 278.209 C 261.805 278.529,261.555 278.888,261.673 279.006 C 261.790 279.124,262.317 278.861,262.843 278.423 C 263.937 277.512,263.398 277.324,262.229 278.209 M141.455 281.000 C 141.582 281.330,141.846 281.600,142.043 281.600 C 142.239 281.600,142.400 281.330,142.400 281.000 C 142.400 280.670,142.136 280.400,141.813 280.400 C 141.455 280.400,141.315 280.635,141.455 281.000 M257.600 280.800 C 257.600 281.020,257.870 281.200,258.200 281.200 C 258.530 281.200,258.800 281.020,258.800 280.800 C 258.800 280.580,258.530 280.400,258.200 280.400 C 257.870 280.400,257.600 280.580,257.600 280.800 M255.733 282.278 C 255.733 282.885,256.474 282.779,256.686 282.142 C 256.761 281.917,256.577 281.733,256.278 281.733 C 255.978 281.733,255.733 281.978,255.733 282.278 M252.400 283.972 C 252.400 284.177,252.009 284.402,251.531 284.472 C 251.054 284.542,250.581 284.870,250.481 285.200 C 250.335 285.684,250.402 285.704,250.830 285.300 C 251.122 285.025,251.662 284.800,252.031 284.800 C 252.400 284.800,252.926 284.530,253.200 284.200 C 253.608 283.709,253.580 283.600,253.049 283.600 C 252.692 283.600,252.400 283.767,252.400 283.972 M148.244 284.971 C 148.528 285.710,149.745 285.835,149.500 285.100 C 149.409 284.825,149.034 284.542,148.668 284.471 C 148.204 284.381,148.076 284.532,148.244 284.971 M151.200 287.000 C 151.200 287.330,151.470 287.600,151.800 287.600 C 152.130 287.600,152.400 287.330,152.400 287.000 C 152.400 286.670,152.130 286.400,151.800 286.400 C 151.470 286.400,151.200 286.670,151.200 287.000 M233.867 294.667 C 233.406 295.127,233.575 295.600,234.200 295.600 C 234.530 295.600,234.800 295.330,234.800 295.000 C 234.800 294.375,234.327 294.206,233.867 294.667 M167.800 296.199 C 168.240 296.515,168.817 296.959,169.083 297.186 C 169.349 297.414,169.754 297.600,169.983 297.600 C 170.212 297.600,170.400 297.885,170.400 298.233 C 170.400 298.582,170.614 298.795,170.875 298.708 C 171.857 298.381,171.539 297.775,169.995 297.036 C 169.118 296.615,168.400 296.120,168.400 295.936 C 168.400 295.751,168.085 295.606,167.700 295.613 C 167.078 295.624,167.089 295.689,167.800 296.199 M230.176 296.987 C 229.689 297.356,229.597 297.579,229.929 297.587 C 230.219 297.594,230.727 297.330,231.057 297.000 C 231.828 296.229,231.191 296.220,230.176 296.987 M228.400 297.906 C 228.400 298.147,228.009 298.402,227.531 298.472 C 227.054 298.542,226.617 298.829,226.561 299.110 C 226.506 299.390,226.552 299.435,226.663 299.210 C 226.775 298.984,227.201 298.800,227.610 298.800 C 228.396 298.800,229.045 298.111,228.640 297.707 C 228.508 297.575,228.400 297.664,228.400 297.906 M174.800 300.200 C 175.074 300.530,175.501 300.786,175.749 300.768 C 176.030 300.749,176.011 300.660,175.698 300.534 C 175.421 300.423,175.297 300.167,175.421 299.966 C 175.545 299.765,175.345 299.600,174.975 299.600 C 174.422 299.600,174.391 299.707,174.800 300.200 M224.224 300.213 C 223.225 300.968,223.595 300.963,225.054 300.202 C 225.684 299.874,225.930 299.610,225.600 299.615 C 225.270 299.621,224.651 299.890,224.224 300.213 M25.600 300.901 C 25.600 301.192,25.960 301.457,26.400 301.490 C 26.840 301.523,27.200 301.478,27.200 301.389 C 27.200 301.301,26.840 301.035,26.400 300.800 C 25.787 300.472,25.600 300.496,25.600 300.901 M31.886 304.442 C 32.499 305.067,33.233 305.583,33.519 305.589 C 34.388 305.608,32.716 303.689,31.686 303.486 C 30.804 303.312,30.811 303.345,31.886 304.442 M181.600 304.020 C 183.055 305.007,183.600 305.224,183.600 304.814 C 183.600 304.586,183.330 304.400,183.000 304.400 C 182.670 304.400,182.400 304.220,182.400 304.000 C 182.400 303.780,182.085 303.603,181.700 303.606 C 181.099 303.611,181.084 303.670,181.600 304.020 M217.443 304.233 C 217.293 304.623,217.382 304.806,217.675 304.708 C 218.273 304.509,218.602 303.600,218.076 303.600 C 217.861 303.600,217.576 303.885,217.443 304.233 M214.292 306.163 C 213.640 306.658,213.663 306.700,214.592 306.700 C 215.181 306.700,215.600 306.471,215.600 306.150 C 215.600 305.465,215.206 305.469,214.292 306.163 M186.240 306.961 C 186.359 307.269,186.800 307.611,187.221 307.721 C 187.867 307.890,187.923 307.803,187.579 307.161 C 187.111 306.286,185.913 306.107,186.240 306.961 M363.200 306.771 C 363.200 306.975,362.885 307.224,362.500 307.324 C 361.973 307.462,362.023 307.519,362.700 307.554 C 363.254 307.582,363.600 307.369,363.600 307.000 C 363.600 306.670,363.510 306.400,363.400 306.400 C 363.290 306.400,363.200 306.567,363.200 306.771 M38.400 308.000 C 38.400 308.220,38.670 308.400,39.000 308.400 C 39.330 308.400,39.600 308.220,39.600 308.000 C 39.600 307.780,39.330 307.600,39.000 307.600 C 38.670 307.600,38.400 307.780,38.400 308.000 M39.839 308.738 C 39.700 308.961,39.782 309.265,40.020 309.412 C 40.635 309.793,41.032 309.272,40.518 308.758 C 40.231 308.471,40.007 308.464,39.839 308.738 M193.455 311.000 C 193.582 311.330,193.846 311.600,194.043 311.600 C 194.239 311.600,194.400 311.330,194.400 311.000 C 194.400 310.670,194.136 310.400,193.813 310.400 C 193.455 310.400,193.315 310.635,193.455 311.000 M354.849 311.240 C 354.353 311.702,354.017 312.150,354.103 312.236 C 354.410 312.544,356.394 311.389,356.397 310.900 C 356.401 310.170,355.873 310.286,354.849 311.240 M196.400 313.000 C 196.400 313.330,196.670 313.600,197.000 313.600 C 197.330 313.600,197.600 313.330,197.600 313.000 C 197.600 312.670,197.330 312.400,197.000 312.400 C 196.670 312.400,196.400 312.670,196.400 313.000 M202.406 313.100 C 202.410 313.544,202.520 313.634,202.706 313.346 C 202.868 313.097,203.360 312.803,203.800 312.693 C 204.413 312.539,204.343 312.482,203.500 312.446 C 202.699 312.413,202.402 312.590,202.406 313.100 M348.400 315.000 C 348.400 315.330,348.130 315.600,347.800 315.600 C 347.470 315.600,347.200 315.795,347.200 316.033 C 347.200 316.272,347.425 316.362,347.700 316.234 C 347.975 316.105,348.515 315.889,348.900 315.754 C 349.755 315.452,349.833 314.400,349.000 314.400 C 348.670 314.400,348.400 314.670,348.400 315.000 M51.705 315.876 C 52.077 316.248,52.515 316.418,52.679 316.254 C 52.843 316.091,52.712 315.789,52.388 315.584 C 51.415 314.969,50.982 315.153,51.705 315.876 M341.200 319.000 C 341.200 319.330,340.990 319.600,340.733 319.600 C 340.477 319.600,340.373 319.706,340.503 319.837 C 340.633 319.967,341.113 319.954,341.570 319.810 C 342.521 319.508,342.702 318.400,341.800 318.400 C 341.470 318.400,341.200 318.670,341.200 319.000 M72.600 328.000 C 72.736 328.220,73.117 328.400,73.447 328.400 C 73.777 328.400,73.936 328.220,73.800 328.000 C 73.664 327.780,73.283 327.600,72.953 327.600 C 72.623 327.600,72.464 327.780,72.600 328.000 M86.224 335.787 C 86.651 336.110,87.259 336.380,87.576 336.387 C 87.983 336.396,87.924 336.227,87.376 335.813 C 86.949 335.490,86.341 335.220,86.024 335.213 C 85.617 335.204,85.676 335.373,86.224 335.787 M88.484 336.853 C 88.572 337.115,88.990 337.381,89.414 337.443 C 89.839 337.506,90.249 337.746,90.326 337.978 C 90.505 338.515,91.600 338.534,91.600 338.000 C 91.600 337.780,91.343 337.600,91.029 337.600 C 90.714 337.600,90.215 337.375,89.919 337.100 C 89.188 336.420,88.288 336.265,88.484 336.853 M310.400 337.433 L 309.400 338.418 310.497 337.909 C 311.100 337.629,311.595 337.175,311.597 336.900 C 311.601 336.259,311.586 336.265,310.400 337.433 M92.887 339.400 C 93.480 339.950,94.198 340.395,94.483 340.388 C 94.794 340.381,94.721 340.213,94.300 339.968 C 93.915 339.744,93.600 339.299,93.600 338.980 C 93.600 338.646,93.220 338.400,92.704 338.400 C 91.825 338.400,91.828 338.419,92.887 339.400 M297.196 345.004 C 296.794 345.489,296.819 345.600,297.327 345.600 C 298.074 345.600,298.562 344.948,298.052 344.632 C 297.853 344.509,297.468 344.677,297.196 345.004 M107.600 348.000 C 107.600 348.220,107.971 348.400,108.424 348.400 C 108.877 348.400,109.136 348.220,109.000 348.000 C 108.864 347.780,108.493 347.600,108.176 347.600 C 107.859 347.600,107.600 347.780,107.600 348.000 M109.600 349.000 C 109.600 349.365,109.953 349.588,110.500 349.568 C 110.995 349.551,111.174 349.446,110.898 349.334 C 110.621 349.223,110.497 348.967,110.621 348.766 C 110.745 348.565,110.567 348.400,110.224 348.400 C 109.881 348.400,109.600 348.670,109.600 349.000 M114.273 351.845 C 114.390 352.150,114.736 352.400,115.043 352.400 C 115.874 352.400,115.716 351.724,114.830 351.492 C 114.290 351.351,114.123 351.456,114.273 351.845 M283.424 353.013 C 282.665 353.587,282.667 353.600,283.524 353.600 C 284.036 353.600,284.400 353.351,284.400 353.000 C 284.400 352.276,284.397 352.276,283.424 353.013 M279.832 355.222 C 278.711 356.352,279.221 356.467,280.392 355.348 C 280.937 354.827,281.207 354.411,280.992 354.424 C 280.776 354.437,280.254 354.796,279.832 355.222 M127.687 359.400 C 128.808 360.440,129.600 360.688,129.600 360.000 C 129.600 359.780,129.352 359.600,129.049 359.600 C 128.746 359.600,128.274 359.330,128.000 359.000 C 127.726 358.670,127.301 358.400,127.055 358.400 C 126.809 358.400,127.093 358.850,127.687 359.400 M273.600 358.800 C 273.600 359.020,273.352 359.200,273.049 359.200 C 272.746 359.200,272.274 359.470,272.000 359.800 C 271.656 360.215,271.641 360.400,271.951 360.400 C 272.198 360.400,272.400 360.220,272.400 360.000 C 272.400 359.780,272.850 359.600,273.400 359.600 C 274.022 359.600,274.400 359.373,274.400 359.000 C 274.400 358.670,274.220 358.400,274.000 358.400 C 273.780 358.400,273.600 358.580,273.600 358.800 M133.826 362.758 C 133.704 362.955,133.874 363.219,134.202 363.346 C 134.565 363.485,134.800 363.344,134.800 362.987 C 134.800 362.340,134.175 362.193,133.826 362.758 M262.922 364.974 C 262.660 365.274,262.210 365.602,261.922 365.704 C 261.619 365.813,261.548 366.039,261.755 366.245 C 261.961 366.452,262.184 366.391,262.288 366.100 C 262.386 365.825,262.722 365.600,263.033 365.600 C 263.345 365.600,263.600 365.330,263.600 365.000 C 263.600 364.277,263.537 364.274,262.922 364.974 M140.400 366.551 C 140.400 366.634,140.670 366.926,141.000 367.200 C 141.491 367.608,141.600 367.580,141.600 367.049 C 141.600 366.692,141.330 366.400,141.000 366.400 C 140.670 366.400,140.400 366.468,140.400 366.551 M144.400 369.000 C 144.400 369.330,144.754 369.600,145.187 369.600 C 145.723 369.600,145.901 369.408,145.745 369.000 C 145.618 368.670,145.264 368.400,144.957 368.400 C 144.651 368.400,144.400 368.670,144.400 369.000 M146.400 370.000 C 146.400 370.220,146.676 370.400,147.013 370.400 C 147.349 370.400,147.729 370.670,147.855 371.000 C 147.982 371.330,148.426 371.600,148.843 371.600 C 149.259 371.600,149.600 371.780,149.600 372.000 C 149.600 372.220,149.763 372.400,149.962 372.400 C 150.162 372.400,150.117 371.951,149.862 371.403 C 149.608 370.855,149.096 370.405,148.724 370.403 C 148.352 370.401,147.936 370.220,147.800 370.000 C 147.664 369.780,147.293 369.600,146.976 369.600 C 146.659 369.600,146.400 369.780,146.400 370.000 M253.200 370.771 C 253.200 370.975,252.885 371.224,252.500 371.324 C 251.973 371.462,252.023 371.519,252.700 371.554 C 253.254 371.582,253.600 371.369,253.600 371.000 C 253.600 370.670,253.510 370.400,253.400 370.400 C 253.290 370.400,253.200 370.567,253.200 370.771 M161.600 378.551 C 161.600 378.634,161.870 378.926,162.200 379.200 C 162.691 379.608,162.800 379.580,162.800 379.049 C 162.800 378.692,162.530 378.400,162.200 378.400 C 161.870 378.400,161.600 378.468,161.600 378.551 M163.600 379.813 C 163.600 380.136,163.870 380.400,164.200 380.400 C 164.530 380.400,164.800 380.239,164.800 380.043 C 164.800 379.846,164.530 379.582,164.200 379.455 C 163.835 379.315,163.600 379.455,163.600 379.813 M168.879 382.936 C 169.244 383.301,169.736 383.600,169.971 383.600 C 170.207 383.600,170.400 383.780,170.400 384.000 C 170.400 384.220,170.670 384.400,171.000 384.400 C 172.018 384.400,171.665 383.803,170.300 383.219 C 169.585 382.912,168.823 382.574,168.607 382.467 C 168.391 382.359,168.513 382.570,168.879 382.936 M175.600 386.813 C 175.600 387.039,175.915 387.323,176.300 387.442 C 176.685 387.561,177.333 387.838,177.739 388.057 C 178.145 388.276,178.574 388.360,178.691 388.243 C 178.808 388.126,178.430 387.814,177.852 387.551 C 177.273 387.287,176.800 386.920,176.800 386.736 C 176.800 386.551,176.530 386.400,176.200 386.400 C 175.870 386.400,175.600 386.586,175.600 386.813 M179.603 389.090 C 179.607 389.455,181.665 390.469,181.908 390.225 C 182.000 390.134,181.518 389.771,180.837 389.419 C 180.157 389.067,179.601 388.919,179.603 389.090 M219.600 390.000 C 219.600 390.220,219.330 390.400,219.000 390.400 C 218.670 390.400,218.400 390.683,218.400 391.029 C 218.400 391.600,218.457 391.600,219.029 391.029 C 219.374 390.683,219.824 390.400,220.029 390.400 C 220.233 390.400,220.400 390.220,220.400 390.000 C 220.400 389.780,220.220 389.600,220.000 389.600 C 219.780 389.600,219.600 389.780,219.600 390.000 M182.613 391.221 C 182.742 391.429,183.161 391.600,183.544 391.600 C 183.927 391.600,184.453 391.813,184.713 392.073 C 184.974 392.334,185.295 392.438,185.428 392.306 C 185.708 392.026,184.306 391.213,183.163 390.993 C 182.732 390.910,182.484 391.012,182.613 391.221 M214.362 393.046 C 213.898 393.605,213.927 393.673,214.580 393.546 C 214.994 393.466,215.409 393.175,215.500 392.900 C 215.738 392.186,214.996 392.282,214.362 393.046 M211.454 394.998 C 211.581 395.326,211.845 395.496,212.042 395.374 C 212.607 395.025,212.460 394.400,211.813 394.400 C 211.456 394.400,211.315 394.635,211.454 394.998 M191.856 395.478 C 191.405 395.928,191.581 396.400,192.200 396.400 C 192.530 396.400,192.800 396.231,192.800 396.024 C 192.800 395.519,192.175 395.158,191.856 395.478 M208.000 396.771 C 208.000 396.975,207.685 397.224,207.300 397.324 C 206.773 397.462,206.823 397.519,207.500 397.554 C 208.054 397.582,208.400 397.369,208.400 397.000 C 208.400 396.670,208.310 396.400,208.200 396.400 C 208.090 396.400,208.000 396.567,208.000 396.771 " stroke="none" fill="#1c4ce4" fill-rule="evenodd"></path><path id="path4" d="M248.500 28.100 C 248.591 28.375,248.970 28.627,249.341 28.659 C 249.863 28.705,249.877 28.676,249.403 28.529 C 249.066 28.425,248.893 28.173,249.019 27.970 C 249.144 27.766,249.042 27.600,248.790 27.600 C 248.539 27.600,248.408 27.825,248.500 28.100 M136.224 36.213 C 135.788 36.542,135.669 36.800,135.952 36.800 C 136.230 36.800,136.727 36.530,137.057 36.200 C 137.824 35.433,137.242 35.442,136.224 36.213 M128.800 40.200 C 128.800 40.567,128.994 40.802,129.230 40.723 C 129.466 40.645,129.660 40.409,129.660 40.200 C 129.660 39.991,129.466 39.756,129.230 39.677 C 128.994 39.598,128.800 39.833,128.800 40.200 M76.456 70.813 C 75.756 71.396,75.674 71.600,76.142 71.600 C 76.488 71.600,76.965 71.240,77.200 70.800 C 77.726 69.818,77.649 69.819,76.456 70.813 M294.092 139.275 C 294.179 139.536,294.464 139.821,294.725 139.908 C 295.018 140.006,295.107 139.823,294.957 139.433 C 294.678 138.706,293.852 138.555,294.092 139.275 M225.817 299.972 C 225.544 300.414,226.175 300.892,226.544 300.522 C 226.925 300.142,226.854 299.600,226.424 299.600 C 226.217 299.600,225.944 299.768,225.817 299.972 M207.717 310.364 C 206.872 311.069,206.879 311.600,207.733 311.600 C 207.953 311.600,208.013 311.480,207.866 311.332 C 207.719 311.185,207.897 310.735,208.261 310.332 C 209.105 309.400,208.854 309.414,207.717 310.364 M45.692 311.675 C 45.779 311.936,46.064 312.221,46.325 312.308 C 46.618 312.406,46.707 312.223,46.557 311.833 C 46.278 311.106,45.452 310.955,45.692 311.675 M52.543 315.800 C 52.873 316.130,53.246 316.400,53.371 316.400 C 53.497 316.400,53.600 316.130,53.600 315.800 C 53.600 315.460,53.241 315.200,52.771 315.200 C 52.035 315.200,52.010 315.267,52.543 315.800 M106.986 347.178 C 107.322 347.721,109.201 347.924,109.474 347.446 C 109.614 347.201,109.596 347.119,109.434 347.263 C 109.272 347.408,108.610 347.375,107.962 347.189 C 107.314 347.003,106.875 346.998,106.986 347.178 M128.000 359.000 C 128.274 359.330,128.650 359.600,128.836 359.600 C 129.023 359.600,129.071 359.330,128.945 359.000 C 128.818 358.670,128.442 358.400,128.108 358.400 C 127.615 358.400,127.595 358.512,128.000 359.000 M224.000 387.220 L 223.000 388.022 224.100 387.547 C 224.705 387.285,225.200 386.920,225.200 386.736 C 225.200 386.279,225.145 386.302,224.000 387.220 M217.204 390.996 C 216.932 391.323,216.522 391.475,216.293 391.334 C 216.043 391.179,215.997 391.272,216.178 391.564 C 216.407 391.935,216.646 391.902,217.172 391.425 C 217.553 391.080,218.014 390.934,218.197 391.099 C 218.379 391.265,218.399 391.175,218.241 390.900 C 217.876 390.266,217.804 390.272,217.204 390.996 " stroke="none" fill="#2858e0" fill-rule="evenodd"></path></g></svg>